<?xml version="1.0" ?><!DOCTYPE svg  PUBLIC '-//W3C//DTD SVG 1.1//EN'  'http://www.w3.org/Graphics/SVG/1.1/DTD/svg11.dtd'><svg id="Layer_1" style="enable-background:new 0 0 75 75;" version="1.1" viewBox="0 0 75 75" xml:space="preserve" xmlns="http://www.w3.org/2000/svg" xmlns:xlink="http://www.w3.org/1999/xlink"><style type="text/css">
	.st0{fill:#EC008C;}
	.st1{fill:#FFFFFF;}
	.st2{fill:#00AAAD;}
	.st3{fill:#F9A01B;}
	.st4{fill:#B2D235;}
</style><g><path class="st4" d="M62.5,73.5h-50c-6.1,0-11-4.9-11-11v-50c0-6.1,4.9-11,11-11h50c6.1,0,11,4.9,11,11v50   C73.5,68.6,68.6,73.5,62.5,73.5z"/><path class="st1" d="M37.5,21.7c-9.7,0-17.5,6.1-17.5,13.7c0,4.8,3.2,9.1,8,11.5c-0.1,1-0.8,3.8-4.3,6.3c0,0,5.1,0.9,9.4-4.5   c1.4,0.3,2.9,0.4,4.4,0.4C47.2,49.2,55,43,55,35.5C55,27.9,47.2,21.7,37.5,21.7z M30.9,38.9c-0.5,0.4-1.2,0.7-2.1,0.7   c-1.2,0-2.4-0.5-3.4-1.4l1-1.3c0.8,0.7,1.6,1.1,2.3,1.1c0.3,0,0.6-0.1,0.8-0.2c0.2-0.1,0.3-0.3,0.3-0.6c0-0.2-0.1-0.4-0.3-0.6   c-0.2-0.1-0.6-0.3-1.2-0.4c-0.9-0.2-1.6-0.5-2-0.8c-0.4-0.3-0.6-0.9-0.6-1.6s0.3-1.3,0.8-1.7c0.5-0.4,1.2-0.6,2-0.6   c0.5,0,1,0.1,1.6,0.3c0.5,0.2,1,0.4,1.4,0.8l-0.9,1.3C30,33.3,29.3,33,28.5,33c-0.3,0-0.5,0.1-0.7,0.2c-0.2,0.1-0.3,0.3-0.3,0.5   c0,0.2,0.1,0.4,0.3,0.5c0.2,0.1,0.7,0.3,1.4,0.5c0.7,0.2,1.3,0.5,1.7,0.8c0.4,0.4,0.6,0.9,0.6,1.6S31.4,38.5,30.9,38.9z M41.9,39.5   h-1.7v-4.9l-2.1,4.3h-1l-2.1-4.3v4.9h-1.7v-7.8h2.4l2,4.3l2-4.3h2.4V39.5z M48.7,38.9c-0.5,0.4-1.2,0.7-2.1,0.7   c-1.2,0-2.4-0.5-3.4-1.4l1-1.3c0.8,0.7,1.6,1.1,2.3,1.1c0.3,0,0.6-0.1,0.8-0.2c0.2-0.1,0.3-0.3,0.3-0.6c0-0.2-0.1-0.4-0.3-0.6   c-0.2-0.1-0.6-0.3-1.2-0.4c-0.9-0.2-1.6-0.5-2-0.8c-0.4-0.3-0.6-0.9-0.6-1.6s0.3-1.3,0.8-1.7c0.5-0.4,1.2-0.6,2-0.6   c0.5,0,1,0.1,1.6,0.3c0.5,0.2,1,0.4,1.4,0.8l-0.9,1.3c-0.7-0.5-1.4-0.8-2.1-0.8c-0.3,0-0.5,0.1-0.7,0.2c-0.2,0.1-0.3,0.3-0.3,0.5   c0,0.2,0.1,0.4,0.3,0.5c0.2,0.1,0.7,0.3,1.4,0.5c0.7,0.2,1.3,0.5,1.7,0.8c0.4,0.4,0.6,0.9,0.6,1.6S49.3,38.5,48.7,38.9z"/></g></svg>