<?xml version="1.0" encoding="utf-8"?>
<!-- Generator: Adobe Illustrator 16.0.0, SVG Export Plug-In . SVG Version: 6.00 Build 0)  -->
<!DOCTYPE svg PUBLIC "-//W3C//DTD SVG 1.1//EN" "http://www.w3.org/Graphics/SVG/1.1/DTD/svg11.dtd">
<svg version="1.1" id="Layer_1" xmlns="http://www.w3.org/2000/svg" xmlns:xlink="http://www.w3.org/1999/xlink" x="0px" y="0px"
	 width="800px" height="800px" viewBox="0 0 800 800" enable-background="new 0 0 800 800" xml:space="preserve">
<g opacity="0.2">
	
		<image overflow="visible" width="2535" height="517" xlink:href="DF408DD9.png"  transform="matrix(0.24 0 0 0.24 54.7632 639.3584)">
	</image>
</g>
<g>
	<polygon fill="#FFFFFF" stroke="#D1D3D4" stroke-miterlimit="10" points="270.986,55.411 648.799,95.621 648.799,683.067 
		270.986,719.496 	"/>
</g>
<polygon fill="#EF4276" points="649.422,689.909 270.363,727.276 270.363,720.183 649.422,683.634 "/>
<polygon fill="#9A1B3F" points="270.671,727.276 205.423,716.504 205.423,709.644 270.671,720.18 "/>
<polygon fill="#A9A8A8" points="270.671,720.188 205.423,709.65 205.423,66.346 270.671,54.714 "/>
<path opacity="0.4" fill="#7FC342" d="M613.797,220.941c5.154-1.882,5.695-0.486,1.201,3.109L355.542,431.575
	c-5.338,4.272-9.719,1.636-9.719-5.867v-74.705c0-7.504-4.586-10.62-10.207-6.914l-65.305,43.024l0.051-13.964V264.544l-0.051-13.97
	l155.182-46.136c5.895-1.753,10.699,2.782,10.699,10.076v58.012c0,7.294,4.744,11.527,10.523,9.419L613.797,220.941z"/>
<polygon fill="#788976" points="270.671,387.116 205.423,444.419 205.423,286.614 270.671,250.574 "/>
<polygon opacity="0.4" fill="#7FC342" points="649.357,541.865 649.357,530.325 605.732,559.235 605.457,509.479 520.563,584.172 
	520.563,642.03 575.941,582.682 575.389,627.878 "/>
<g>
	<g>
		<path fill="#333333" d="M320.878,575.43c0.203-0.422,0.398-0.735,0.59-0.938s0.432-0.312,0.725-0.326
			c0.313-0.018,0.648,0.068,1.008,0.256c0.361,0.185,0.539,0.562,0.539,1.127c0,0.514-0.174,1.132-0.523,1.857
			c-0.346,0.728-0.721,1.368-1.125,1.933c-0.158,0.215-0.432,0.543-0.826,0.988c-0.393,0.446-0.91,0.892-1.551,1.34
			c-0.641,0.445-1.398,0.85-2.277,1.205c-0.879,0.357-1.891,0.569-3.041,0.633c-1.67,0.092-3.189-0.158-4.559-0.755
			s-2.543-1.473-3.514-2.634c-0.977-1.162-1.73-2.596-2.264-4.297c-0.533-1.705-0.801-3.63-0.801-5.777s0.268-4.104,0.801-5.877
			c0.533-1.77,1.287-3.294,2.264-4.567c0.971-1.273,2.145-2.278,3.514-3.014s2.889-1.14,4.559-1.22
			c1.104-0.051,2.082,0.046,2.939,0.287c0.855,0.246,1.588,0.538,2.195,0.882c0.605,0.346,1.1,0.708,1.482,1.088
			c0.381,0.382,0.662,0.682,0.842,0.905c0.404,0.519,0.791,1.125,1.16,1.814c0.371,0.688,0.557,1.29,0.557,1.804
			c0,0.564-0.186,0.959-0.557,1.183c-0.369,0.225-0.711,0.346-1.025,0.36c-0.293,0.015-0.533-0.07-0.725-0.255
			c-0.191-0.183-0.365-0.438-0.521-0.765c-0.248-0.502-0.551-1.008-0.91-1.517s-0.787-0.972-1.283-1.388
			c-0.494-0.412-1.078-0.743-1.756-0.996c-0.674-0.253-1.463-0.355-2.365-0.312c-1.287,0.061-2.42,0.385-3.402,0.974
			c-0.986,0.589-1.816,1.386-2.494,2.386c-0.68,1.001-1.189,2.188-1.529,3.562c-0.342,1.371-0.51,2.873-0.51,4.499
			c0,1.603,0.168,3.072,0.51,4.412c0.34,1.336,0.85,2.473,1.529,3.403c0.678,0.932,1.508,1.641,2.494,2.132
			c0.982,0.487,2.115,0.696,3.402,0.626c1.014-0.056,1.883-0.263,2.604-0.623c0.721-0.362,1.326-0.794,1.822-1.298
			c0.494-0.501,0.9-1.032,1.215-1.59C320.382,576.382,320.654,575.88,320.878,575.43z"/>
		<path fill="#333333" d="M340.439,561.355c0.443-0.021,0.793,0.07,1.049,0.275c0.254,0.204,0.383,0.589,0.383,1.151v17.401
			c0,0.509-0.117,0.879-0.35,1.108c-0.232,0.23-0.594,0.36-1.082,0.387c-0.51,0.027-0.865-0.073-1.066-0.305
			c-0.197-0.233-0.299-0.579-0.299-1.039v-13.541l-8.285,14.264c-0.469,0.797-1.061,1.213-1.775,1.252
			c-0.559,0.031-0.928-0.083-1.109-0.344c-0.178-0.26-0.266-0.605-0.266-1.044v-17.514c0-0.514,0.123-0.887,0.367-1.115
			c0.248-0.231,0.594-0.358,1.041-0.38s0.793,0.073,1.039,0.277c0.244,0.207,0.367,0.567,0.367,1.078v13.924l8.422-14.646
			c0.244-0.448,0.482-0.752,0.715-0.918C339.824,561.465,340.107,561.372,340.439,561.355z"/>
		<path fill="#333333" d="M357.757,575.637c0.264-0.441,0.477-0.74,0.643-0.901c0.164-0.16,0.391-0.246,0.674-0.263
			c0.309-0.015,0.609,0.095,0.907,0.333c0.295,0.239,0.441,0.548,0.441,0.931c0,0.355-0.076,0.701-0.23,1.039
			c-0.107,0.288-0.311,0.672-0.606,1.159c-0.297,0.484-0.703,0.972-1.219,1.458c-0.516,0.484-1.141,0.913-1.877,1.283
			c-0.736,0.372-1.611,0.587-2.623,0.643c-1.256,0.068-2.369-0.119-3.34-0.563c-0.971-0.442-1.787-1.101-2.449-1.972
			s-1.172-1.938-1.523-3.196c-0.354-1.257-0.531-2.681-0.531-4.266c0-1.533,0.178-2.948,0.531-4.245
			c0.352-1.296,0.861-2.428,1.523-3.392c0.662-0.967,1.479-1.733,2.449-2.306c0.971-0.569,2.084-0.886,3.34-0.947
			c0.947-0.046,1.777,0.047,2.49,0.277c0.715,0.234,1.328,0.541,1.846,0.921c0.514,0.382,0.932,0.806,1.25,1.273
			c0.316,0.467,0.565,0.897,0.739,1.295c0.088,0.199,0.154,0.387,0.199,0.564c0.043,0.176,0.066,0.363,0.066,0.567
			c0,0.458-0.145,0.825-0.43,1.107c-0.284,0.283-0.59,0.432-0.92,0.445c-0.242,0.013-0.445-0.033-0.607-0.139
			c-0.168-0.104-0.371-0.35-0.611-0.742c-0.131-0.194-0.297-0.45-0.494-0.767s-0.449-0.618-0.756-0.906
			c-0.311-0.287-0.688-0.525-1.141-0.718c-0.449-0.192-0.994-0.272-1.631-0.241c-1.631,0.083-2.85,0.828-3.654,2.242
			c-0.805,1.415-1.207,3.229-1.207,5.438c0,1.145,0.1,2.175,0.297,3.092c0.199,0.918,0.504,1.697,0.91,2.338
			c0.408,0.638,0.916,1.124,1.523,1.46c0.605,0.336,1.316,0.479,2.131,0.437c0.594-0.032,1.1-0.142,1.518-0.329
			c0.418-0.185,0.773-0.411,1.072-0.679c0.295-0.269,0.543-0.553,0.74-0.853C357.394,576.216,357.582,575.924,357.757,575.637z"/>
		<path fill="#333333" d="M370.189,578.628c0,0.938-0.469,1.432-1.406,1.483c-0.457,0.024-0.805-0.063-1.047-0.266
			c-0.238-0.202-0.357-0.556-0.357-1.062v-15.819l-4.066,0.204c-0.48,0.022-0.809-0.087-0.984-0.333
			c-0.174-0.243-0.262-0.582-0.262-1.016c0-0.431,0.092-0.771,0.277-1.022c0.188-0.248,0.498-0.387,0.936-0.409l11.35-0.555
			c0.803-0.039,1.205,0.396,1.205,1.308c0,0.428-0.088,0.773-0.26,1.037c-0.176,0.26-0.5,0.404-0.979,0.426l-4.406,0.222V578.628z"
			/>
		<path fill="#333333" d="M392.195,568.632c0,0.903-0.441,1.381-1.322,1.427l-11.006,0.58c0.043,2.04,0.486,3.607,1.332,4.698
			c0.844,1.091,2.043,1.592,3.598,1.507c0.646-0.034,1.209-0.161,1.682-0.375c0.475-0.214,0.879-0.47,1.215-0.765
			c0.332-0.294,0.602-0.594,0.807-0.893c0.205-0.3,0.371-0.556,0.502-0.765c0.148-0.259,0.293-0.456,0.436-0.59
			c0.139-0.134,0.348-0.209,0.629-0.224c0.301-0.017,0.596,0.08,0.887,0.295c0.291,0.209,0.436,0.504,0.436,0.881
			c0,0.329-0.119,0.724-0.355,1.19c-0.193,0.363-0.451,0.76-0.773,1.19c-0.324,0.434-0.738,0.853-1.244,1.259
			s-1.107,0.755-1.807,1.044c-0.703,0.29-1.518,0.463-2.445,0.515c-2.439,0.136-4.355-0.631-5.742-2.296
			c-1.387-1.668-2.08-4.146-2.08-7.431c0-1.541,0.184-2.968,0.553-4.274c0.369-1.308,0.895-2.444,1.576-3.413
			c0.684-0.97,1.506-1.733,2.469-2.299c0.963-0.564,2.039-0.879,3.225-0.935c1.209-0.059,2.275,0.142,3.203,0.599
			c0.926,0.458,1.701,1.125,2.326,1.999c0.623,0.874,1.096,1.916,1.418,3.118C392.033,565.879,392.195,567.198,392.195,568.632z
			 M384.732,561.685c-0.756,0.036-1.414,0.233-1.977,0.589s-1.039,0.815-1.428,1.378s-0.691,1.202-0.908,1.921
			c-0.215,0.718-0.357,1.456-0.424,2.215l9.426-0.484c-0.066-0.776-0.205-1.512-0.42-2.205c-0.217-0.694-0.514-1.303-0.891-1.826
			c-0.377-0.521-0.846-0.928-1.404-1.212C386.145,561.771,385.486,561.646,384.732,561.685z"/>
		<path fill="#333333" d="M410.332,563.449l-4.498,13.3c-0.236,0.713-0.715,1.093-1.439,1.132c-0.447,0.024-0.789-0.056-1.025-0.246
			c-0.232-0.185-0.404-0.44-0.51-0.762l-4.328-12.638v13.027c0,0.801-0.438,1.229-1.316,1.275c-0.449,0.027-0.771-0.051-0.965-0.229
			c-0.191-0.176-0.289-0.492-0.289-0.942v-17.109c0-0.602,0.148-1.03,0.449-1.283s0.729-0.395,1.285-0.421
			c0.494-0.024,0.889,0.075,1.189,0.299c0.301,0.225,0.514,0.533,0.641,0.931l4.9,14.639l4.887-14.973
			c0.17-0.509,0.393-0.891,0.668-1.142c0.277-0.251,0.689-0.39,1.244-0.416c0.551-0.027,0.959,0.065,1.225,0.277
			s0.398,0.604,0.398,1.181v17.127c0,0.399-0.096,0.703-0.287,0.915s-0.51,0.328-0.953,0.354c-0.469,0.023-0.799-0.057-0.988-0.246
			c-0.191-0.19-0.287-0.494-0.287-0.923V563.449z"/>
		<path fill="#333333" d="M427.664,564.732V563.8c0-1.414-0.313-2.456-0.93-3.123c-0.621-0.665-1.625-0.965-3.016-0.894
			c-0.549,0.026-1.021,0.124-1.422,0.294c-0.4,0.168-0.744,0.36-1.029,0.575c-0.283,0.214-0.516,0.436-0.695,0.669
			c-0.178,0.234-0.332,0.44-0.459,0.621c-0.211,0.309-0.389,0.521-0.537,0.628c-0.15,0.107-0.338,0.166-0.572,0.178
			c-0.338,0.015-0.646-0.085-0.934-0.31c-0.285-0.221-0.428-0.521-0.428-0.893c0-0.202,0.016-0.363,0.047-0.492
			c0.031-0.127,0.078-0.266,0.145-0.419c0.018-0.073,0.146-0.292,0.379-0.652c0.232-0.362,0.586-0.752,1.061-1.176
			c0.477-0.421,1.088-0.806,1.838-1.156c0.748-0.349,1.66-0.551,2.734-0.602c1.201-0.059,2.215,0.073,3.047,0.392
			c0.83,0.322,1.496,0.768,2,1.34c0.504,0.569,0.869,1.241,1.1,2.013c0.23,0.77,0.348,1.58,0.348,2.423v12.262
			c0,0.821-0.453,1.257-1.354,1.306c-0.609,0.034-0.982-0.107-1.119-0.421c-0.135-0.317-0.203-0.76-0.203-1.332v-1.12
			c-0.211,0.36-0.463,0.733-0.758,1.122c-0.295,0.39-0.656,0.753-1.088,1.086c-0.432,0.336-0.947,0.618-1.547,0.853
			c-0.6,0.231-1.291,0.367-2.068,0.411c-0.949,0.054-1.762-0.039-2.438-0.275c-0.676-0.238-1.23-0.586-1.664-1.049
			s-0.75-1.021-0.951-1.67c-0.201-0.65-0.301-1.349-0.301-2.097c0-0.974,0.137-1.887,0.412-2.738c0.273-0.85,0.76-1.604,1.459-2.265
			c0.697-0.659,1.635-1.195,2.818-1.604c1.18-0.409,2.676-0.688,4.484-0.831L427.664,564.732z M425.928,567.361
			c-1.346,0.095-2.434,0.271-3.268,0.526c-0.832,0.253-1.48,0.581-1.945,0.979c-0.465,0.396-0.775,0.845-0.934,1.341
			c-0.158,0.494-0.236,1.042-0.236,1.639c0,0.848,0.221,1.563,0.664,2.152c0.443,0.587,1.232,0.847,2.373,0.786
			c0.988-0.054,1.891-0.372,2.701-0.949c0.809-0.58,1.422-1.278,1.844-2.097c0.357-0.691,0.537-1.608,0.537-2.753v-1.753
			L425.928,567.361z"/>
		<path fill="#333333" d="M308.498,633.249c-0.158,0.37-0.328,0.652-0.508,0.847c-0.184,0.195-0.455,0.305-0.816,0.331
			c-0.389,0.027-0.715-0.072-0.986-0.299s-0.408-0.558-0.408-0.996c0-0.131,0.018-0.287,0.051-0.47
			c0.035-0.183,0.109-0.409,0.221-0.675l2.482-6.524l-5.955-16.511c-0.09-0.25-0.18-0.486-0.273-0.698
			c-0.09-0.214-0.135-0.424-0.135-0.631c0-0.44,0.176-0.801,0.527-1.081c0.352-0.282,0.744-0.436,1.176-0.46
			c0.521-0.034,0.908,0.305,1.158,1.013l5.061,14.391l5.32-15.116c0.135-0.37,0.279-0.635,0.439-0.801
			c0.156-0.163,0.371-0.256,0.639-0.272c0.406-0.024,0.779,0.068,1.117,0.277c0.336,0.212,0.506,0.536,0.506,0.974
			c0,0.181-0.039,0.383-0.119,0.606c-0.078,0.222-0.164,0.453-0.254,0.691L308.498,633.249z"/>
		<path fill="#333333" d="M324.175,623.817c0,0.949-0.469,1.456-1.412,1.521c-0.494,0.034-0.857-0.051-1.094-0.253
			s-0.354-0.56-0.354-1.073v-17.551c0-0.514,0.117-0.866,0.354-1.063c0.236-0.195,0.568-0.308,0.992-0.331l11.639-0.726
			c0.424-0.027,0.74,0.051,0.953,0.229c0.211,0.181,0.316,0.526,0.316,1.037v17.473c0,0.436-0.105,0.781-0.316,1.039
			c-0.213,0.259-0.574,0.404-1.088,0.438c-0.488,0.034-0.852-0.051-1.086-0.251c-0.232-0.202-0.35-0.558-0.35-1.071v-15.987
			l-8.555,0.538V623.817z"/>
		<path fill="#333333" d="M340.64,605.405c0-0.563,0.109-0.952,0.332-1.171c0.221-0.217,0.553-0.343,0.998-0.37
			c0.441-0.026,0.779,0.057,1.012,0.243c0.236,0.192,0.352,0.567,0.352,1.13v1.877c0.465-1.076,1.168-2.001,2.107-2.775
			c0.939-0.773,2.086-1.2,3.432-1.285c2.318-0.144,4.107,0.674,5.371,2.454c1.268,1.777,1.9,4.268,1.9,7.474
			c0,1.5-0.162,2.897-0.479,4.189c-0.318,1.296-0.793,2.435-1.422,3.416c-0.625,0.986-1.389,1.77-2.293,2.354
			c-0.904,0.581-1.932,0.913-3.078,0.99c-1.391,0.095-2.529-0.131-3.412-0.682c-0.889-0.553-1.551-1.22-1.996-2.008v9.039
			c0,0.587-0.127,0.998-0.381,1.231c-0.256,0.236-0.605,0.37-1.049,0.402c-0.441,0.031-0.785-0.052-1.029-0.256
			c-0.244-0.197-0.365-0.592-0.365-1.179V605.405z M353.173,613.252c0-2.294-0.396-4.095-1.189-5.405
			c-0.793-1.312-1.975-1.92-3.541-1.82c-0.795,0.049-1.51,0.307-2.139,0.765c-0.629,0.462-1.16,1.063-1.594,1.806
			c-0.432,0.743-0.762,1.58-0.996,2.516c-0.232,0.935-0.348,1.91-0.348,2.934c0,2.273,0.443,4.048,1.328,5.331
			c0.885,1.28,2.123,1.867,3.715,1.761c0.795-0.054,1.49-0.295,2.086-0.717c0.596-0.423,1.092-0.983,1.488-1.685
			c0.396-0.703,0.693-1.517,0.891-2.446C353.074,615.36,353.173,614.345,353.173,613.252z"/>
		<path fill="#333333" d="M370.615,609.72v-0.95c0-1.443-0.32-2.5-0.963-3.167c-0.645-0.67-1.686-0.959-3.127-0.866
			c-0.566,0.034-1.061,0.141-1.473,0.318c-0.416,0.181-0.771,0.38-1.066,0.599c-0.297,0.225-0.537,0.456-0.721,0.694
			c-0.188,0.241-0.346,0.455-0.477,0.638c-0.221,0.321-0.406,0.538-0.561,0.647c-0.152,0.109-0.35,0.176-0.592,0.19
			c-0.35,0.021-0.672-0.076-0.967-0.3c-0.299-0.224-0.445-0.523-0.445-0.905c0-0.205,0.018-0.37,0.049-0.499
			c0.035-0.13,0.084-0.273,0.148-0.429c0.023-0.078,0.152-0.302,0.395-0.672c0.242-0.373,0.607-0.774,1.102-1.213
			c0.492-0.436,1.127-0.837,1.904-1.205c0.775-0.365,1.721-0.582,2.834-0.649c1.246-0.078,2.299,0.039,3.158,0.353
			c0.861,0.314,1.553,0.76,2.074,1.334c0.521,0.572,0.904,1.252,1.143,2.033s0.359,1.604,0.359,2.464v12.486
			c0,0.833-0.469,1.283-1.402,1.349c-0.633,0.041-1.02-0.095-1.16-0.414c-0.143-0.318-0.213-0.77-0.213-1.354v-1.139
			c-0.217,0.369-0.479,0.752-0.783,1.153c-0.307,0.401-0.682,0.774-1.129,1.122c-0.445,0.349-0.982,0.643-1.605,0.887
			c-0.621,0.248-1.336,0.396-2.145,0.453c-0.984,0.067-1.826-0.016-2.527-0.246c-0.701-0.231-1.275-0.577-1.723-1.045
			c-0.451-0.462-0.78-1.024-0.989-1.682c-0.207-0.66-0.311-1.373-0.311-2.136c0-0.99,0.141-1.921,0.428-2.792
			c0.284-0.869,0.788-1.646,1.512-2.327c0.723-0.682,1.695-1.242,2.92-1.675c1.225-0.434,2.775-0.738,4.652-0.911L370.615,609.72z
			 M368.816,612.419c-1.395,0.117-2.525,0.312-3.387,0.585c-0.865,0.27-1.537,0.61-2.018,1.024
			c-0.482,0.411-0.805,0.872-0.969,1.378c-0.164,0.507-0.246,1.063-0.246,1.673c0,0.864,0.229,1.592,0.689,2.181
			c0.459,0.592,1.279,0.848,2.461,0.768c1.025-0.068,1.959-0.407,2.799-1.006c0.84-0.604,1.479-1.322,1.914-2.162
			c0.371-0.708,0.555-1.646,0.555-2.812v-1.784L368.816,612.419z"/>
		<path fill="#333333" d="M391.58,614.778c0,3.725-2.107,5.73-6.332,6.018l-5.641,0.388c-0.369,0.024-0.672-0.056-0.91-0.241
			s-0.357-0.494-0.357-0.923v-17.165c0-0.404,0.119-0.721,0.357-0.95c0.238-0.231,0.551-0.357,0.941-0.382l5.221-0.326
			c2.051-0.127,3.586,0.158,4.609,0.847c1.021,0.691,1.533,1.943,1.533,3.757c0,1.029-0.217,1.938-0.646,2.72
			c-0.43,0.781-1,1.385-1.711,1.811c1.076,0.282,1.834,0.854,2.275,1.717C391.361,612.913,391.58,613.824,391.58,614.778z
			 M388.191,606.279c0-0.959-0.27-1.646-0.807-2.064c-0.539-0.419-1.51-0.584-2.912-0.497l-3.404,0.215v5.906l3.273-0.212
			c1.361-0.088,2.342-0.392,2.945-0.911C387.889,608.2,388.191,607.387,388.191,606.279z M388.771,615.044
			c0-1.062-0.277-1.846-0.838-2.364c-0.561-0.517-1.605-0.726-3.139-0.626l-3.727,0.246v6.322l4.213-0.284
			c1.273-0.088,2.174-0.419,2.701-0.996S388.771,615.998,388.771,615.044z"/>
		<path fill="#333333" d="M406.471,599.853c0.385-0.024,0.697,0.051,0.943,0.224c0.244,0.173,0.365,0.497,0.365,0.974v17.192
			c0,0.825-0.436,1.269-1.309,1.329c-0.469,0.032-0.814-0.038-1.037-0.211c-0.225-0.171-0.336-0.497-0.336-0.975v-15.705
			l-5.572,0.354c-0.043,0.954-0.08,1.875-0.111,2.754c-0.033,0.881-0.07,1.801-0.113,2.756c-0.064,1.336-0.15,2.688-0.258,4.063
			c-0.107,1.376-0.32,2.632-0.641,3.769c-0.322,1.14-0.803,2.084-1.447,2.831c-0.643,0.745-1.52,1.157-2.635,1.234
			c-0.516,0.034-0.859-0.041-1.031-0.233c-0.172-0.188-0.258-0.484-0.258-0.886c0-0.351,0.064-0.677,0.193-0.975
			c0.129-0.299,0.432-0.486,0.9-0.571c0.26-0.039,0.494-0.119,0.709-0.234c0.215-0.116,0.412-0.312,0.594-0.586
			c0.184-0.278,0.34-0.653,0.469-1.125c0.129-0.475,0.246-1.079,0.354-1.813c0.127-0.938,0.219-1.867,0.273-2.788
			c0.055-0.92,0.102-1.821,0.145-2.704l0.287-6.761c0.023-0.879,0.439-1.347,1.256-1.397L406.471,599.853z"/>
		<path fill="#333333" d="M426.686,608.149c0,0.894-0.432,1.37-1.293,1.426l-10.768,0.709c0.043,2.021,0.477,3.566,1.305,4.633
			c0.824,1.066,1.998,1.551,3.52,1.446c0.633-0.042,1.182-0.173,1.646-0.392c0.465-0.217,0.859-0.476,1.186-0.772
			c0.326-0.294,0.592-0.594,0.789-0.894c0.201-0.299,0.365-0.553,0.492-0.762c0.145-0.256,0.287-0.455,0.426-0.587
			c0.135-0.136,0.34-0.212,0.617-0.231c0.293-0.017,0.582,0.076,0.865,0.28c0.285,0.204,0.428,0.494,0.428,0.866
			c0,0.324-0.117,0.719-0.348,1.182c-0.189,0.362-0.441,0.757-0.758,1.19c-0.316,0.433-0.721,0.85-1.215,1.259
			c-0.496,0.406-1.086,0.757-1.771,1.054c-0.686,0.3-1.48,0.475-2.389,0.538c-2.389,0.163-4.264-0.567-5.617-2.201
			c-1.357-1.631-2.037-4.07-2.037-7.32c0-1.526,0.18-2.936,0.541-4.233c0.359-1.3,0.877-2.43,1.543-3.398
			c0.668-0.964,1.473-1.733,2.414-2.304c0.941-0.569,1.992-0.891,3.156-0.964c1.182-0.073,2.225,0.112,3.133,0.553
			c0.904,0.443,1.664,1.093,2.273,1.95c0.611,0.856,1.074,1.879,1.389,3.064C426.529,605.43,426.686,606.729,426.686,608.149z
			 M419.385,601.369c-0.74,0.046-1.383,0.248-1.934,0.608s-1.014,0.82-1.395,1.381c-0.381,0.563-0.68,1.197-0.891,1.91
			c-0.211,0.711-0.35,1.444-0.412,2.196l9.219-0.597c-0.064-0.767-0.201-1.492-0.41-2.176c-0.211-0.682-0.502-1.281-0.871-1.792
			c-0.367-0.514-0.826-0.908-1.375-1.186C420.768,601.439,420.123,601.323,419.385,601.369z"/>
		<path fill="#333333" d="M430.371,599.561c0-0.497,0.115-0.854,0.346-1.064c0.23-0.214,0.555-0.336,0.973-0.36
			c0.42-0.026,0.746,0.054,0.977,0.239c0.229,0.183,0.346,0.522,0.346,1.02v6.814l8.143-0.528v-6.797
			c0-0.494,0.121-0.848,0.359-1.062c0.24-0.215,0.568-0.331,0.984-0.358c0.414-0.026,0.738,0.054,0.967,0.238
			c0.227,0.184,0.342,0.521,0.342,1.016v16.998c0,0.424-0.098,0.754-0.295,1.003c-0.197,0.251-0.535,0.39-1.014,0.421
			c-0.459,0.031-0.797-0.051-1.016-0.246c-0.217-0.194-0.328-0.538-0.328-1.034v-7.501l-8.143,0.533v7.522
			c0,0.445-0.1,0.794-0.299,1.042c-0.199,0.251-0.539,0.393-1.023,0.426c-0.459,0.029-0.795-0.053-1.004-0.248
			c-0.211-0.197-0.314-0.543-0.314-1.039V599.561z"/>
		<path fill="#333333" d="M460.402,596.352c0.412-0.026,0.736,0.061,0.975,0.253c0.234,0.195,0.354,0.563,0.354,1.104v16.751
			c0,0.492-0.107,0.85-0.324,1.074c-0.217,0.222-0.549,0.351-1.004,0.382c-0.473,0.031-0.803-0.061-0.986-0.282
			c-0.186-0.222-0.277-0.553-0.277-0.996v-13.036l-7.68,13.815c-0.434,0.771-0.982,1.179-1.645,1.225
			c-0.518,0.034-0.859-0.07-1.025-0.319c-0.166-0.248-0.248-0.581-0.248-1.003V598.46c0-0.494,0.113-0.854,0.342-1.078
			c0.229-0.222,0.549-0.349,0.965-0.375c0.412-0.024,0.734,0.061,0.963,0.255c0.225,0.195,0.34,0.541,0.34,1.035v13.401
			l7.803-14.186c0.227-0.434,0.447-0.728,0.664-0.891C459.834,596.461,460.096,596.371,460.402,596.352z"/>
		<path fill="#333333" d="M467.639,614.501c-0.145,0.302-0.303,0.54-0.477,0.713c-0.176,0.171-0.416,0.268-0.723,0.287
			c-0.41,0.029-0.738-0.063-0.984-0.282c-0.246-0.217-0.369-0.496-0.369-0.84c0-0.197,0.094-0.487,0.277-0.866l0.461-0.988
			c0.451-0.967,0.896-1.934,1.338-2.91c0.439-0.974,0.896-1.944,1.365-2.906c-0.553-0.234-1.018-0.528-1.396-0.887
			c-0.379-0.355-0.682-0.744-0.906-1.173c-0.227-0.429-0.385-0.884-0.477-1.371c-0.092-0.484-0.139-0.959-0.139-1.427
			c0-1.77,0.455-3.187,1.369-4.25c0.908-1.064,2.357-1.658,4.34-1.782l4.621-0.287c0.344-0.022,0.629,0.065,0.854,0.261
			c0.225,0.194,0.336,0.486,0.336,0.879v16.852c0,0.465-0.102,0.796-0.305,0.993c-0.205,0.197-0.52,0.312-0.947,0.338
			c-0.469,0.034-0.801-0.049-0.992-0.243c-0.193-0.192-0.293-0.487-0.293-0.879v-6.725l-3.67,0.244L467.639,614.501z
			 M468.375,601.637c0,0.981,0.256,1.779,0.768,2.398c0.51,0.615,1.369,0.886,2.574,0.808l2.875-0.188v-6.688l-3.059,0.192
			c-1.164,0.075-1.982,0.414-2.453,1.021C468.611,599.786,468.375,600.604,468.375,601.637z"/>
		<path fill="#333333" d="M315.24,663.487c0.271-0.455,0.49-0.764,0.66-0.932s0.4-0.261,0.691-0.283
			c0.316-0.026,0.627,0.078,0.93,0.31c0.305,0.233,0.457,0.543,0.457,0.928c0,0.36-0.08,0.716-0.238,1.063
			c-0.111,0.293-0.318,0.689-0.623,1.188c-0.305,0.501-0.721,1.008-1.25,1.512c-0.529,0.507-1.174,0.959-1.928,1.356
			c-0.758,0.394-1.656,0.635-2.693,0.72c-1.287,0.105-2.432-0.051-3.43-0.475c-0.994-0.423-1.834-1.068-2.514-1.933
			c-0.682-0.862-1.203-1.928-1.566-3.194c-0.363-1.266-0.543-2.7-0.543-4.307c0-1.553,0.18-2.994,0.543-4.318
			c0.363-1.322,0.885-2.481,1.566-3.479c0.68-0.995,1.52-1.799,2.514-2.402c0.998-0.606,2.143-0.957,3.43-1.052
			c0.971-0.075,1.824-0.003,2.557,0.212c0.732,0.217,1.365,0.509,1.896,0.879c0.527,0.372,0.955,0.791,1.283,1.256
			c0.326,0.465,0.578,0.896,0.758,1.295c0.09,0.197,0.158,0.388,0.203,0.563c0.047,0.178,0.068,0.368,0.068,0.574
			c0,0.463-0.146,0.841-0.439,1.133c-0.293,0.294-0.607,0.455-0.945,0.479c-0.25,0.02-0.457-0.02-0.625-0.124
			c-0.17-0.103-0.377-0.346-0.627-0.733c-0.135-0.197-0.303-0.45-0.506-0.767c-0.203-0.314-0.463-0.613-0.779-0.896
			c-0.314-0.282-0.705-0.514-1.168-0.696c-0.463-0.181-1.021-0.246-1.676-0.195c-1.676,0.127-2.924,0.916-3.75,2.369
			c-0.828,1.456-1.242,3.306-1.242,5.546c0,1.158,0.102,2.2,0.305,3.126c0.205,0.925,0.518,1.704,0.938,2.342
			c0.418,0.635,0.939,1.115,1.563,1.437c0.621,0.326,1.352,0.452,2.188,0.385c0.609-0.049,1.129-0.176,1.559-0.373
			c0.43-0.202,0.795-0.442,1.102-0.723c0.303-0.28,0.557-0.575,0.76-0.884C314.869,664.084,315.058,663.782,315.24,663.487z"/>
		<path fill="#333333" d="M332.496,654.735v-0.959c0-1.461-0.328-2.521-0.986-3.191s-1.725-0.944-3.201-0.833
			c-0.582,0.044-1.086,0.158-1.51,0.346c-0.426,0.186-0.789,0.395-1.092,0.621c-0.303,0.231-0.549,0.468-0.738,0.714
			c-0.191,0.245-0.354,0.465-0.488,0.652c-0.223,0.326-0.414,0.547-0.572,0.662c-0.156,0.114-0.359,0.18-0.605,0.199
			c-0.359,0.029-0.689-0.068-0.994-0.29c-0.303-0.222-0.453-0.523-0.453-0.907c0-0.207,0.018-0.378,0.051-0.51
			c0.035-0.129,0.084-0.274,0.15-0.433c0.023-0.081,0.158-0.307,0.404-0.687c0.248-0.38,0.623-0.791,1.127-1.242
			c0.506-0.45,1.156-0.864,1.951-1.246c0.795-0.38,1.762-0.616,2.904-0.701c1.273-0.095,2.354,0.01,3.232,0.316
			c0.881,0.305,1.59,0.742,2.125,1.317c0.535,0.574,0.926,1.254,1.17,2.042c0.244,0.789,0.367,1.619,0.367,2.486v12.637
			c0,0.843-0.48,1.306-1.438,1.383c-0.646,0.054-1.041-0.08-1.186-0.398c-0.146-0.322-0.219-0.777-0.219-1.366v-1.154
			c-0.223,0.378-0.488,0.77-0.803,1.179c-0.313,0.411-0.697,0.794-1.156,1.151c-0.459,0.358-1.004,0.665-1.641,0.921
			c-0.637,0.26-1.369,0.421-2.197,0.488c-1.008,0.083-1.871,0.01-2.59-0.211c-0.717-0.225-1.307-0.567-1.766-1.032
			c-0.459-0.463-0.797-1.027-1.01-1.692c-0.215-0.662-0.32-1.383-0.32-2.152c0-1.003,0.146-1.947,0.438-2.834
			c0.293-0.883,0.809-1.675,1.549-2.375c0.74-0.701,1.738-1.278,2.994-1.736c1.252-0.458,2.84-0.786,4.76-0.991L332.496,654.735z
			 M330.654,657.496c-1.428,0.137-2.584,0.351-3.469,0.638c-0.883,0.288-1.572,0.644-2.066,1.066
			c-0.494,0.427-0.824,0.894-0.992,1.407c-0.168,0.517-0.252,1.084-0.252,1.699c0,0.874,0.234,1.607,0.707,2.198
			c0.471,0.592,1.311,0.838,2.518,0.738c1.053-0.083,2.01-0.438,2.869-1.057c0.859-0.623,1.512-1.358,1.959-2.216
			c0.379-0.723,0.568-1.672,0.568-2.853v-1.807L330.654,657.496z"/>
		<path fill="#333333" d="M353.107,645.305c0.439-0.034,0.785,0.051,1.041,0.245c0.252,0.197,0.377,0.577,0.377,1.135v17.334
			c0,0.509-0.115,0.881-0.346,1.115c-0.23,0.233-0.588,0.372-1.072,0.411c-0.506,0.041-0.859-0.049-1.057-0.275
			c-0.199-0.227-0.299-0.567-0.299-1.024v-13.49l-8.221,14.422c-0.465,0.807-1.053,1.237-1.76,1.293
			c-0.557,0.047-0.922-0.059-1.1-0.309c-0.178-0.258-0.268-0.6-0.268-1.035v-17.448c0-0.511,0.123-0.884,0.365-1.117
			c0.246-0.236,0.592-0.372,1.033-0.406c0.443-0.032,0.787,0.051,1.031,0.251c0.244,0.197,0.367,0.553,0.367,1.061v13.87
			l8.354-14.807c0.242-0.453,0.479-0.763,0.709-0.933C352.496,645.426,352.777,645.329,353.107,645.305z M347.945,643.206
			c-0.949,0.07-1.752-0.015-2.404-0.261c-0.652-0.243-1.186-0.569-1.592-0.972c-0.41-0.406-0.705-0.866-0.883-1.393
			c-0.176-0.523-0.266-1.013-0.266-1.473c0-0.896,0.467-1.375,1.396-1.443c0.508-0.039,0.818,0.197,0.928,0.698
			c0.113,0.373,0.234,0.719,0.367,1.025c0.133,0.312,0.303,0.584,0.514,0.825c0.211,0.238,0.469,0.416,0.779,0.535
			c0.311,0.115,0.707,0.158,1.193,0.122c0.465-0.034,0.852-0.142,1.158-0.313c0.311-0.178,0.57-0.399,0.779-0.672
			c0.209-0.269,0.375-0.57,0.498-0.894c0.121-0.329,0.225-0.65,0.313-0.96c0.154-0.599,0.496-0.918,1.025-0.954
			c0.881-0.065,1.322,0.349,1.322,1.239c0,0.484-0.1,0.993-0.297,1.531c-0.199,0.535-0.504,1.042-0.91,1.52
			c-0.408,0.475-0.936,0.886-1.588,1.225C349.628,642.934,348.849,643.138,347.945,643.206z"/>
		<path fill="#333333" d="M365.51,663.125c0,0.938-0.469,1.446-1.408,1.521c-0.461,0.039-0.811-0.041-1.051-0.238
			c-0.24-0.195-0.361-0.546-0.361-1.055v-15.841l-4.077,0.314c-0.484,0.036-0.813-0.068-0.988-0.308
			c-0.176-0.243-0.262-0.577-0.262-1.01c0-0.434,0.092-0.774,0.277-1.03c0.188-0.258,0.5-0.404,0.939-0.436l11.383-0.859
			c0.805-0.061,1.209,0.365,1.209,1.275c0,0.434-0.088,0.781-0.262,1.05c-0.176,0.263-0.502,0.416-0.98,0.452l-4.42,0.336V663.125z"
			/>
		<path fill="#333333" d="M372.281,653.92c0-1.595,0.191-3.038,0.572-4.336c0.379-1.292,0.922-2.415,1.629-3.369
			c0.705-0.949,1.547-1.696,2.523-2.237c0.977-0.543,2.059-0.856,3.25-0.947c1.191-0.087,2.273,0.062,3.246,0.455
			c0.971,0.395,1.807,1.011,2.51,1.851c0.699,0.845,1.238,1.88,1.615,3.109c0.379,1.229,0.566,2.639,0.566,4.226
			c0,1.585-0.188,3.036-0.566,4.351c-0.377,1.314-0.916,2.447-1.615,3.398c-0.703,0.952-1.539,1.714-2.51,2.284
			c-0.973,0.569-2.055,0.905-3.246,1c-1.191,0.1-2.273-0.059-3.25-0.47c-0.977-0.414-1.818-1.039-2.523-1.882
			c-0.707-0.84-1.25-1.892-1.629-3.152C372.473,656.941,372.281,655.515,372.281,653.92z M375.215,653.688
			c0,2.304,0.436,4.115,1.303,5.432c0.869,1.322,2.115,1.919,3.738,1.787c1.625-0.134,2.865-0.928,3.732-2.386
			c0.861-1.453,1.295-3.328,1.295-5.624c0-2.293-0.434-4.075-1.295-5.344c-0.867-1.271-2.107-1.843-3.732-1.721
			c-1.623,0.124-2.869,0.889-3.738,2.295C375.65,649.533,375.215,651.386,375.215,653.688z"/>
		<path fill="#333333" d="M406.633,646.79l-4.512,13.436c-0.234,0.723-0.715,1.112-1.439,1.171
			c-0.451,0.039-0.793-0.034-1.027-0.217c-0.234-0.18-0.408-0.431-0.514-0.75l-4.336-12.537v13.041c0,0.804-0.441,1.242-1.322,1.315
			c-0.449,0.036-0.771-0.032-0.965-0.202c-0.195-0.176-0.291-0.487-0.291-0.94v-17.129c0-0.604,0.15-1.034,0.451-1.298
			c0.301-0.263,0.73-0.413,1.289-0.455c0.494-0.036,0.889,0.052,1.189,0.268c0.301,0.217,0.516,0.521,0.645,0.916l4.912,14.524
			l4.896-15.121c0.17-0.512,0.395-0.898,0.672-1.159c0.277-0.258,0.691-0.406,1.244-0.45c0.553-0.041,0.961,0.041,1.229,0.246
			c0.266,0.207,0.398,0.597,0.398,1.171v17.146c0,0.401-0.094,0.711-0.287,0.925c-0.191,0.217-0.51,0.344-0.957,0.38
			c-0.469,0.039-0.797-0.034-0.988-0.222c-0.191-0.183-0.287-0.486-0.287-0.913V646.79z"/>
	</g>
</g>
<g>
	<g>
		<path fill="#5B5C5C" d="M238.41,441.327c-0.141-0.153-0.248-0.302-0.313-0.447c-0.067-0.146-0.099-0.329-0.099-0.553
			c0-0.239,0.034-0.494,0.104-0.768c0.071-0.274,0.206-0.408,0.4-0.408c0.178,0,0.389,0.131,0.632,0.396
			c0.246,0.266,0.463,0.555,0.648,0.861c0.071,0.119,0.181,0.329,0.326,0.631c0.148,0.297,0.291,0.691,0.436,1.179
			c0.143,0.489,0.266,1.065,0.372,1.733c0.108,0.669,0.161,1.436,0.161,2.31c0,1.267-0.116,2.415-0.348,3.447
			c-0.232,1.035-0.555,1.916-0.974,2.645c-0.419,0.732-0.925,1.297-1.521,1.694c-0.594,0.395-1.26,0.589-1.994,0.582
			c-0.737-0.008-1.404-0.212-2-0.619c-0.6-0.406-1.105-0.979-1.527-1.714c-0.42-0.735-0.742-1.618-0.974-2.651
			c-0.229-1.031-0.343-2.176-0.343-3.438c0-0.835,0.049-1.572,0.143-2.22c0.101-0.647,0.213-1.2,0.34-1.658
			c0.129-0.46,0.262-0.835,0.397-1.124c0.138-0.288,0.245-0.5,0.325-0.636c0.185-0.307,0.398-0.599,0.643-0.882
			c0.242-0.279,0.453-0.421,0.629-0.421c0.196,0.003,0.328,0.142,0.398,0.424c0.072,0.282,0.107,0.543,0.107,0.781
			c0,0.222-0.035,0.404-0.101,0.548c-0.064,0.146-0.157,0.277-0.271,0.396c-0.178,0.188-0.357,0.417-0.539,0.687
			c-0.18,0.273-0.347,0.597-0.498,0.972c-0.148,0.373-0.271,0.815-0.369,1.327c-0.098,0.509-0.146,1.104-0.146,1.786
			c0,0.972,0.094,1.829,0.279,2.571c0.184,0.74,0.443,1.368,0.775,1.882c0.33,0.514,0.73,0.9,1.195,1.161
			c0.463,0.261,0.975,0.39,1.535,0.395c0.549,0.005,1.056-0.119,1.521-0.37c0.469-0.253,0.866-0.633,1.198-1.145
			c0.333-0.508,0.595-1.134,0.78-1.879c0.188-0.74,0.281-1.6,0.281-2.573c0-0.77-0.057-1.429-0.168-1.975
			c-0.109-0.548-0.247-1.008-0.412-1.388c-0.166-0.375-0.34-0.684-0.526-0.923C238.728,441.705,238.56,441.498,238.41,441.327z"/>
		<path fill="#5B5C5C" d="M233.888,426.385c0-0.344,0.037-0.611,0.113-0.809c0.075-0.194,0.211-0.292,0.405-0.295l6.042-0.026
			c0.18,0,0.307,0.088,0.38,0.268c0.078,0.178,0.117,0.455,0.117,0.833c0,0.392-0.044,0.667-0.13,0.822
			c-0.084,0.153-0.205,0.229-0.367,0.229l-4.702,0.02l4.798,6.342c0.266,0.36,0.401,0.813,0.401,1.358
			c0,0.429-0.048,0.711-0.143,0.847c-0.091,0.137-0.216,0.205-0.368,0.205l-6.055-0.003c-0.178,0-0.304-0.095-0.379-0.282
			c-0.076-0.189-0.113-0.45-0.113-0.791s0.037-0.606,0.113-0.796c0.075-0.188,0.201-0.278,0.379-0.278l4.814-0.005l-4.922-6.438
			c-0.15-0.188-0.252-0.37-0.306-0.551C233.916,426.856,233.888,426.638,233.888,426.385z"/>
		<path fill="#5B5C5C" d="M239.166,412.958c-0.149-0.202-0.252-0.37-0.304-0.496c-0.054-0.127-0.079-0.3-0.079-0.523
			c0-0.239,0.045-0.476,0.134-0.706c0.089-0.231,0.198-0.351,0.333-0.351c0.126-0.003,0.244,0.058,0.358,0.178
			c0.1,0.082,0.231,0.24,0.396,0.47c0.166,0.229,0.326,0.543,0.486,0.942c0.16,0.398,0.299,0.886,0.413,1.458
			c0.117,0.572,0.175,1.249,0.175,2.037c0,0.977-0.088,1.839-0.262,2.593c-0.174,0.755-0.418,1.388-0.734,1.904
			c-0.316,0.514-0.697,0.908-1.145,1.186c-0.444,0.275-0.941,0.416-1.492,0.421c-0.535,0.003-1.023-0.132-1.468-0.401
			c-0.443-0.271-0.828-0.66-1.15-1.169c-0.323-0.509-0.577-1.14-0.759-1.889c-0.182-0.748-0.272-1.607-0.272-2.578
			c0-0.733,0.046-1.376,0.14-1.931c0.093-0.556,0.21-1.035,0.35-1.437c0.143-0.401,0.299-0.728,0.467-0.977
			c0.169-0.248,0.324-0.442,0.466-0.581c0.071-0.068,0.136-0.122,0.197-0.156s0.129-0.054,0.2-0.054
			c0.16-0.003,0.285,0.109,0.378,0.326c0.094,0.222,0.142,0.463,0.142,0.718c0,0.188-0.021,0.346-0.061,0.476
			c-0.039,0.126-0.13,0.284-0.27,0.472c-0.07,0.105-0.162,0.234-0.277,0.39c-0.113,0.153-0.223,0.351-0.326,0.592
			c-0.106,0.238-0.196,0.535-0.271,0.884c-0.074,0.351-0.112,0.774-0.112,1.269c0,1.261,0.237,2.203,0.716,2.821
			c0.476,0.616,1.101,0.925,1.87,0.92c0.398-0.002,0.76-0.082,1.082-0.24c0.324-0.154,0.602-0.393,0.832-0.709
			c0.231-0.316,0.41-0.711,0.539-1.186c0.129-0.468,0.193-1.022,0.193-1.655c0-0.46-0.028-0.854-0.087-1.179
			c-0.058-0.323-0.129-0.602-0.217-0.827c-0.087-0.231-0.183-0.424-0.284-0.577C239.361,413.24,239.262,413.095,239.166,412.958z"/>
		<path fill="#5B5C5C" d="M240.449,403.228c0.33-0.008,0.497,0.357,0.497,1.093c0,0.36-0.039,0.636-0.117,0.825
			c-0.073,0.188-0.2,0.283-0.38,0.285l-5.538,0.078v3.172c0,0.375-0.044,0.633-0.133,0.77c-0.089,0.139-0.21,0.207-0.358,0.209
			c-0.148,0.003-0.268-0.07-0.352-0.214c-0.085-0.142-0.127-0.388-0.127-0.729v-8.871c0-0.628,0.158-0.947,0.479-0.954
			c0.148,0,0.27,0.065,0.358,0.199c0.089,0.137,0.133,0.39,0.133,0.768v3.452L240.449,403.228z"/>
		<path fill="#5B5C5C" d="M237.343,385.913c0.318-0.007,0.479,0.339,0.479,1.037v8.708c0.721-0.046,1.281-0.409,1.682-1.083
			c0.398-0.675,0.599-1.624,0.599-2.858c0-0.509-0.032-0.954-0.099-1.329s-0.149-0.691-0.247-0.957
			c-0.097-0.26-0.198-0.475-0.301-0.635c-0.103-0.158-0.188-0.29-0.261-0.39c-0.088-0.117-0.154-0.231-0.199-0.341
			c-0.044-0.112-0.066-0.277-0.066-0.499c0-0.241,0.041-0.478,0.119-0.709c0.081-0.231,0.188-0.351,0.32-0.353
			c0.117-0.003,0.254,0.09,0.414,0.272c0.123,0.151,0.26,0.354,0.406,0.606s0.289,0.579,0.422,0.979s0.244,0.874,0.335,1.427
			c0.087,0.558,0.132,1.2,0.132,1.936c0,1.933-0.307,3.452-0.924,4.56c-0.613,1.103-1.496,1.665-2.65,1.688
			c-0.542,0.007-1.037-0.129-1.491-0.412c-0.45-0.279-0.841-0.687-1.167-1.217c-0.329-0.531-0.584-1.176-0.764-1.931
			c-0.182-0.755-0.271-1.6-0.271-2.537c0-0.956,0.088-1.802,0.264-2.539c0.178-0.735,0.426-1.354,0.744-1.854
			c0.32-0.504,0.693-0.887,1.123-1.152C236.371,386.064,236.837,385.926,237.343,385.913z M234.765,391.883
			c0,0.597,0.057,1.114,0.172,1.553c0.115,0.443,0.268,0.815,0.459,1.118c0.189,0.302,0.409,0.537,0.658,0.705
			c0.246,0.164,0.504,0.271,0.77,0.316v-7.449c-0.273,0.059-0.537,0.173-0.785,0.349c-0.246,0.178-0.467,0.416-0.656,0.721
			c-0.189,0.302-0.342,0.677-0.452,1.122S234.765,391.286,234.765,391.883z"/>
		<path fill="#5B5C5C" d="M235.84,371.465l4.638,3.476c0.248,0.178,0.373,0.561,0.373,1.143c0,0.36-0.037,0.633-0.107,0.822
			c-0.07,0.19-0.166,0.331-0.281,0.419l-4.555,3.579l4.608-0.117c0.286-0.01,0.43,0.338,0.43,1.039c0,0.361-0.036,0.616-0.101,0.772
			c-0.068,0.155-0.181,0.233-0.343,0.238l-6.042,0.151c-0.213,0.005-0.361-0.11-0.445-0.346c-0.084-0.236-0.127-0.577-0.127-1.021
			c0-0.392,0.043-0.708,0.127-0.952c0.084-0.238,0.197-0.408,0.34-0.519l5.268-4.061l-5.216-3.764
			c-0.177-0.132-0.308-0.307-0.392-0.525c-0.084-0.22-0.127-0.551-0.127-0.993c0-0.443,0.039-0.772,0.121-0.986
			c0.078-0.217,0.221-0.329,0.423-0.336l6.084-0.19c0.145-0.002,0.249,0.071,0.321,0.222c0.07,0.151,0.108,0.406,0.108,0.765
			c0,0.377-0.038,0.643-0.108,0.799c-0.072,0.158-0.183,0.235-0.335,0.243L235.84,371.465z"/>
		<path fill="#5B5C5C" d="M236.613,357.439l-0.333,0.012c-0.505,0.018-0.882,0.285-1.131,0.796
			c-0.245,0.514-0.371,1.332-0.371,2.457c0,0.443,0.026,0.825,0.081,1.148c0.052,0.322,0.113,0.597,0.184,0.823
			c0.072,0.229,0.146,0.414,0.229,0.558c0.079,0.142,0.149,0.263,0.211,0.362c0.105,0.169,0.178,0.31,0.213,0.427
			c0.035,0.121,0.052,0.27,0.052,0.462c0,0.271-0.041,0.526-0.125,0.758s-0.191,0.351-0.323,0.357c-0.072,0-0.13-0.01-0.176-0.034
			c-0.043-0.024-0.092-0.061-0.146-0.111c-0.023-0.015-0.102-0.117-0.225-0.3c-0.125-0.183-0.258-0.463-0.396-0.843
			c-0.143-0.379-0.269-0.869-0.381-1.47c-0.11-0.602-0.164-1.337-0.164-2.206c0-0.972,0.063-1.794,0.191-2.474
			c0.127-0.679,0.298-1.225,0.512-1.644c0.211-0.416,0.457-0.723,0.736-0.922c0.281-0.197,0.568-0.305,0.871-0.314l4.382-0.166
			c0.295-0.012,0.443,0.352,0.443,1.084c0,0.496-0.06,0.801-0.175,0.918c-0.116,0.114-0.275,0.175-0.481,0.185l-0.4,0.015
			c0.124,0.166,0.255,0.368,0.388,0.602c0.133,0.236,0.255,0.525,0.365,0.871c0.113,0.346,0.203,0.763,0.274,1.247
			s0.108,1.042,0.108,1.675c0,0.771-0.049,1.432-0.148,1.981c-0.098,0.55-0.234,1.003-0.408,1.361
			c-0.172,0.353-0.376,0.618-0.613,0.788c-0.234,0.173-0.486,0.261-0.752,0.269c-0.349,0.012-0.668-0.088-0.967-0.3
			s-0.558-0.597-0.777-1.154c-0.225-0.555-0.397-1.31-0.521-2.259c-0.124-0.952-0.195-2.162-0.213-3.63L236.613,357.439z
			 M237.518,358.814c0.009,1.094,0.05,1.975,0.125,2.646s0.179,1.193,0.312,1.563c0.135,0.369,0.287,0.618,0.463,0.74
			c0.173,0.121,0.365,0.18,0.578,0.172c0.303-0.01,0.563-0.199,0.78-0.564c0.218-0.367,0.326-1.013,0.326-1.936
			c0-0.803-0.095-1.528-0.284-2.182c-0.194-0.649-0.432-1.142-0.715-1.473c-0.24-0.279-0.564-0.416-0.975-0.398l-0.625,0.021
			L237.518,358.814z"/>
		<path fill="#5B5C5C" d="M243.337,341.501c0.125,0.111,0.219,0.235,0.281,0.369c0.063,0.137,0.094,0.342,0.094,0.614
			c0,0.292-0.043,0.54-0.127,0.75c-0.086,0.209-0.203,0.318-0.355,0.323c-0.045,0-0.098-0.007-0.16-0.031s-0.141-0.073-0.227-0.156
			l-2.193-1.777l-5.805,4.735c-0.09,0.073-0.172,0.144-0.246,0.214c-0.076,0.073-0.147,0.11-0.219,0.112
			c-0.15,0.008-0.271-0.119-0.359-0.382c-0.088-0.261-0.133-0.553-0.133-0.874c0-0.393,0.124-0.689,0.373-0.887l5.055-4.038
			l-5.084-3.783c-0.123-0.098-0.211-0.205-0.265-0.319c-0.052-0.119-0.079-0.28-0.079-0.484c0-0.305,0.039-0.589,0.121-0.85
			c0.078-0.258,0.193-0.392,0.346-0.397c0.062-0.007,0.129,0.02,0.205,0.078c0.075,0.057,0.15,0.117,0.23,0.181L243.337,341.501z"/>
		<path fill="#5B5C5C" d="M240.449,329.729c0.33-0.017,0.497,0.334,0.497,1.052c0,0.375-0.039,0.657-0.117,0.838
			c-0.073,0.185-0.2,0.28-0.38,0.29l-6.057,0.299c-0.176,0.008-0.296-0.075-0.357-0.253c-0.063-0.176-0.094-0.424-0.094-0.747
			v-8.872c0-0.323,0.033-0.569,0.101-0.732c0.067-0.168,0.188-0.256,0.365-0.266l6.056-0.331c0.153-0.007,0.27,0.068,0.354,0.227
			c0.086,0.158,0.13,0.434,0.13,0.825c0,0.378-0.039,0.657-0.117,0.843c-0.073,0.183-0.2,0.277-0.38,0.287l-5.538,0.297v6.52
			L240.449,329.729z"/>
		<path fill="#5B5C5C" d="M234.445,317.448c-0.193,0.012-0.326-0.066-0.397-0.234c-0.069-0.165-0.106-0.419-0.106-0.76
			s0.037-0.604,0.106-0.786c0.071-0.185,0.204-0.277,0.397-0.29l0.65-0.036c-0.359-0.341-0.668-0.861-0.914-1.572
			c-0.248-0.711-0.371-1.585-0.371-2.625c0-1.789,0.321-3.194,0.968-4.212c0.646-1.02,1.528-1.567,2.646-1.636
			c0.524-0.031,1.008,0.062,1.453,0.282c0.445,0.222,0.831,0.563,1.16,1.03c0.33,0.465,0.584,1.044,0.767,1.735
			c0.183,0.689,0.274,1.479,0.274,2.369c0,1.078-0.106,1.965-0.322,2.658c-0.211,0.699-0.461,1.225-0.746,1.583l3.155-0.181
			c0.204-0.012,0.345,0.08,0.421,0.272c0.076,0.19,0.113,0.458,0.113,0.802c0,0.343-0.037,0.608-0.113,0.803
			c-0.076,0.192-0.217,0.295-0.421,0.305L234.445,317.448z M237.45,307.598c-0.798,0.051-1.433,0.396-1.907,1.04
			c-0.475,0.643-0.711,1.567-0.711,2.779c0,0.614,0.072,1.159,0.219,1.637c0.146,0.477,0.344,0.876,0.592,1.195
			c0.247,0.316,0.529,0.558,0.85,0.718c0.32,0.158,0.658,0.231,1.012,0.21c0.79-0.044,1.419-0.424,1.887-1.135
			c0.465-0.709,0.699-1.68,0.699-2.909c0-0.616-0.066-1.151-0.2-1.604c-0.133-0.455-0.319-0.828-0.553-1.12
			c-0.237-0.294-0.515-0.509-0.834-0.643S237.831,307.576,237.45,307.598z"/>
		<path fill="#5B5C5C" d="M236.613,294.057l-0.333,0.024c-0.505,0.034-0.882,0.312-1.131,0.83c-0.245,0.519-0.371,1.342-0.371,2.469
			c0,0.441,0.026,0.825,0.081,1.145c0.052,0.321,0.113,0.597,0.184,0.82c0.072,0.224,0.146,0.406,0.229,0.548
			c0.079,0.142,0.149,0.261,0.211,0.357c0.105,0.166,0.178,0.302,0.213,0.419s0.052,0.271,0.052,0.458
			c0,0.272-0.041,0.528-0.125,0.765s-0.191,0.355-0.323,0.365c-0.072,0.005-0.13-0.005-0.176-0.027
			c-0.043-0.021-0.092-0.059-0.146-0.104c-0.023-0.015-0.102-0.114-0.225-0.295c-0.125-0.18-0.258-0.455-0.396-0.83
			c-0.143-0.375-0.269-0.861-0.381-1.458c-0.11-0.599-0.164-1.334-0.164-2.198c0-0.974,0.063-1.802,0.191-2.481
			c0.127-0.684,0.298-1.236,0.512-1.66c0.211-0.423,0.457-0.74,0.736-0.944c0.281-0.204,0.568-0.321,0.871-0.341l4.382-0.302
			c0.295-0.017,0.443,0.339,0.443,1.073c0,0.497-0.06,0.804-0.175,0.923c-0.116,0.119-0.275,0.186-0.481,0.2l-0.4,0.023
			c0.124,0.166,0.255,0.361,0.388,0.592c0.133,0.231,0.255,0.517,0.365,0.859c0.113,0.344,0.203,0.758,0.274,1.239
			c0.071,0.484,0.108,1.04,0.108,1.67c0,0.772-0.049,1.435-0.148,1.989c-0.098,0.553-0.234,1.011-0.408,1.371
			c-0.172,0.36-0.376,0.63-0.613,0.808c-0.234,0.178-0.486,0.275-0.752,0.29c-0.349,0.024-0.668-0.065-0.967-0.271
			c-0.299-0.202-0.558-0.579-0.777-1.13c-0.225-0.545-0.397-1.297-0.521-2.244s-0.195-2.154-0.213-3.62L236.613,294.057z
			 M237.518,295.405c0.009,1.094,0.05,1.973,0.125,2.642c0.075,0.67,0.179,1.188,0.312,1.556c0.135,0.368,0.287,0.611,0.463,0.726
			c0.173,0.117,0.365,0.171,0.578,0.153c0.303-0.017,0.563-0.214,0.78-0.586c0.218-0.373,0.326-1.021,0.326-1.943
			c0-0.806-0.095-1.529-0.284-2.174c-0.194-0.646-0.432-1.13-0.715-1.451c-0.24-0.275-0.564-0.399-0.975-0.37l-0.625,0.042
			L237.518,295.405z"/>
		<path fill="#5B5C5C" d="M238.876,277.352c1.316-0.098,1.975,1.528,1.975,4.879v4.462c0,0.292-0.037,0.533-0.107,0.729
			c-0.07,0.192-0.182,0.292-0.334,0.304l-6.029,0.424c-0.143,0.013-0.252-0.073-0.324-0.256c-0.076-0.185-0.115-0.429-0.115-0.735
			v-4.114c0-1.621,0.133-2.843,0.4-3.673c0.266-0.83,0.714-1.269,1.354-1.315c0.363-0.028,0.678,0.117,0.943,0.438
			s0.466,0.757,0.599,1.313c0.124-0.862,0.345-1.48,0.658-1.855C238.212,277.578,238.539,277.376,238.876,277.352z M235.8,280.271
			c-0.337,0.026-0.583,0.258-0.745,0.696c-0.158,0.436-0.237,1.21-0.237,2.317v2.686l2.073-0.146v-2.585
			c0-1.079-0.083-1.848-0.253-2.313C236.471,280.46,236.193,280.243,235.8,280.271z M238.901,279.581
			c-0.37,0.027-0.655,0.271-0.851,0.729c-0.195,0.46-0.294,1.293-0.294,2.505v2.946l2.226-0.158v-3.333
			c0-1.009-0.094-1.717-0.285-2.121C239.504,279.745,239.24,279.555,238.901,279.581z"/>
		<path fill="#5B5C5C" d="M233.941,265.86c0-0.307,0.033-0.56,0.101-0.762s0.183-0.31,0.351-0.324l6.098-0.494
			c0.294-0.023,0.441,0.313,0.441,1.016c0,0.377-0.033,0.657-0.103,0.84c-0.064,0.186-0.185,0.285-0.351,0.3l-5.567,0.447v4.45
			c0.337,0.008,0.661,0.013,0.97,0.013c0.313,0,0.633,0.007,0.972,0.015c0.472,0.012,0.946,0.046,1.432,0.092
			c0.483,0.049,0.923,0.186,1.317,0.409c0.397,0.225,0.721,0.587,0.969,1.079c0.25,0.494,0.376,1.186,0.376,2.074
			c0,0.411-0.038,0.688-0.108,0.83c-0.072,0.141-0.177,0.219-0.321,0.229c-0.124,0.01-0.239-0.034-0.34-0.129
			c-0.103-0.093-0.163-0.328-0.181-0.703c-0.008-0.205-0.031-0.39-0.066-0.558c-0.035-0.171-0.099-0.321-0.193-0.458
			c-0.093-0.142-0.223-0.253-0.387-0.344c-0.165-0.09-0.375-0.168-0.633-0.233c-0.329-0.078-0.656-0.126-0.98-0.141
			c-0.322-0.018-0.641-0.032-0.951-0.042l-2.378-0.049c-0.311,0.008-0.466-0.313-0.466-0.959V265.86z"/>
		<path fill="#5B5C5C" d="M237.343,249.274c0.318-0.027,0.479,0.307,0.479,1.008v8.711c0.721-0.098,1.281-0.497,1.682-1.195
			c0.398-0.701,0.599-1.666,0.599-2.897c0-0.514-0.032-0.954-0.099-1.324s-0.149-0.685-0.247-0.939
			c-0.097-0.259-0.198-0.46-0.301-0.614c-0.103-0.155-0.188-0.279-0.261-0.377c-0.088-0.112-0.154-0.219-0.199-0.326
			c-0.044-0.107-0.066-0.272-0.066-0.494c0-0.238,0.041-0.478,0.119-0.716c0.081-0.236,0.188-0.36,0.32-0.372
			c0.117-0.013,0.254,0.07,0.414,0.245c0.123,0.142,0.26,0.334,0.406,0.575c0.146,0.246,0.289,0.563,0.422,0.951
			c0.133,0.393,0.244,0.862,0.335,1.41c0.087,0.548,0.132,1.188,0.132,1.923c0,1.934-0.307,3.475-0.924,4.621
			c-0.613,1.144-1.496,1.763-2.65,1.86c-0.542,0.043-1.037-0.059-1.491-0.314c-0.45-0.251-0.841-0.631-1.167-1.142
			c-0.329-0.509-0.584-1.135-0.764-1.88c-0.182-0.74-0.271-1.582-0.271-2.52c0-0.954,0.088-1.804,0.264-2.552
			c0.178-0.749,0.426-1.385,0.744-1.908c0.32-0.523,0.693-0.933,1.123-1.225C236.371,249.488,236.837,249.318,237.343,249.274z
			 M234.765,255.412c0,0.596,0.057,1.112,0.172,1.546c0.115,0.431,0.268,0.796,0.459,1.086c0.189,0.289,0.409,0.511,0.658,0.659
			c0.246,0.151,0.504,0.241,0.77,0.268v-7.449c-0.273,0.078-0.537,0.209-0.785,0.401c-0.246,0.195-0.467,0.445-0.656,0.762
			c-0.189,0.314-0.342,0.701-0.452,1.152C234.82,254.289,234.765,254.817,234.765,255.412z"/>
		<path fill="#5B5C5C" d="M234.365,246.548c-0.174,0.015-0.299-0.065-0.369-0.246c-0.07-0.183-0.107-0.443-0.107-0.784
			c0-0.343,0.037-0.605,0.107-0.803c0.07-0.192,0.195-0.297,0.369-0.314l2.434-0.222v-6.655l-2.434,0.226
			c-0.174,0.02-0.299-0.065-0.369-0.258c-0.07-0.188-0.107-0.45-0.107-0.793c0-0.342,0.037-0.609,0.107-0.802
			c0.07-0.197,0.195-0.302,0.369-0.316l6.098-0.584c0.153-0.015,0.27,0.056,0.354,0.209c0.086,0.156,0.13,0.429,0.13,0.82
			c0,0.378-0.039,0.66-0.117,0.845c-0.073,0.188-0.2,0.29-0.38,0.308l-2.692,0.253v6.66l2.692-0.245
			c0.162-0.015,0.283,0.054,0.367,0.209c0.086,0.156,0.13,0.429,0.13,0.823c0,0.375-0.039,0.652-0.117,0.83
			c-0.073,0.178-0.2,0.275-0.38,0.289L234.365,246.548z"/>
		<path fill="#5B5C5C" d="M233.888,221.947c0-0.344,0.037-0.613,0.113-0.818c0.075-0.204,0.211-0.313,0.405-0.333l6.042-0.621
			c0.18-0.02,0.307,0.056,0.38,0.231c0.078,0.17,0.117,0.445,0.117,0.82c0,0.395-0.044,0.672-0.13,0.833
			c-0.084,0.162-0.205,0.253-0.367,0.268l-4.702,0.479l4.798,5.872c0.266,0.333,0.401,0.771,0.401,1.319
			c0,0.429-0.048,0.716-0.143,0.859c-0.091,0.148-0.216,0.229-0.368,0.243l-6.055,0.59c-0.178,0.017-0.304-0.063-0.379-0.244
			c-0.076-0.18-0.113-0.44-0.113-0.781s0.037-0.608,0.113-0.806c0.075-0.192,0.201-0.3,0.379-0.316l4.814-0.475l-4.922-5.958
			c-0.15-0.172-0.252-0.346-0.306-0.521C233.916,222.417,233.888,222.203,233.888,221.947z"/>
		<path fill="#5B5C5C" d="M240.611,215.232c0.105,0.11,0.189,0.234,0.247,0.373s0.088,0.336,0.088,0.594
			c0,0.343-0.044,0.618-0.13,0.833c-0.084,0.214-0.188,0.328-0.313,0.343c-0.07,0.005-0.173-0.061-0.306-0.202l-0.347-0.346
			c-0.339-0.341-0.679-0.677-1.021-1.008c-0.342-0.333-0.683-0.679-1.021-1.034c-0.096,0.472-0.213,0.871-0.352,1.202
			c-0.137,0.331-0.287,0.597-0.445,0.801c-0.159,0.205-0.327,0.355-0.506,0.451c-0.176,0.095-0.351,0.15-0.518,0.168
			c-0.638,0.067-1.139-0.261-1.501-0.981c-0.364-0.721-0.546-1.906-0.546-3.562v-3.859c0-0.289,0.039-0.533,0.115-0.728
			c0.072-0.194,0.182-0.302,0.324-0.316l6.109-0.665c0.171-0.02,0.287,0.054,0.355,0.217c0.064,0.166,0.101,0.426,0.101,0.784
			c0,0.395-0.039,0.677-0.117,0.847c-0.073,0.171-0.185,0.264-0.326,0.278l-2.439,0.263v3.077L240.611,215.232z M235.974,215.106
			c0.355-0.037,0.648-0.283,0.884-0.733c0.235-0.452,0.354-1.181,0.354-2.188v-2.407l-2.422,0.26v2.56
			c0,0.971,0.104,1.643,0.313,2.013S235.601,215.146,235.974,215.106z"/>
		<path fill="#5B5C5C" d="M239.166,188.859c-0.149-0.187-0.252-0.343-0.304-0.465c-0.054-0.121-0.079-0.294-0.079-0.516
			c0-0.239,0.045-0.478,0.134-0.721c0.089-0.239,0.198-0.368,0.333-0.385c0.126-0.015,0.244,0.031,0.358,0.137
			c0.1,0.072,0.231,0.219,0.396,0.428c0.166,0.212,0.326,0.509,0.486,0.892c0.16,0.385,0.299,0.854,0.413,1.412
			c0.117,0.563,0.175,1.234,0.175,2.021c0,0.976-0.088,1.848-0.262,2.619c-0.174,0.774-0.418,1.435-0.734,1.984
			c-0.316,0.548-0.697,0.985-1.145,1.308c-0.444,0.326-0.941,0.519-1.492,0.579c-0.535,0.063-1.023-0.022-1.468-0.243
			c-0.443-0.222-0.828-0.57-1.15-1.045c-0.323-0.475-0.577-1.076-0.759-1.804c-0.182-0.73-0.272-1.58-0.272-2.554
			c0-0.73,0.046-1.381,0.14-1.945c0.093-0.564,0.21-1.055,0.35-1.473c0.143-0.416,0.299-0.76,0.467-1.025
			c0.169-0.268,0.324-0.477,0.466-0.63c0.071-0.076,0.136-0.137,0.197-0.178c0.062-0.042,0.129-0.068,0.2-0.078
			c0.16-0.018,0.285,0.078,0.378,0.29c0.094,0.211,0.142,0.445,0.142,0.7c0,0.188-0.021,0.349-0.061,0.479
			c-0.039,0.135-0.13,0.3-0.27,0.505c-0.07,0.111-0.162,0.25-0.277,0.418c-0.113,0.166-0.223,0.375-0.326,0.628
			c-0.106,0.249-0.196,0.556-0.271,0.911c-0.074,0.36-0.112,0.786-0.112,1.28c0,1.262,0.237,2.177,0.716,2.744
			c0.476,0.566,1.101,0.808,1.87,0.721c0.398-0.047,0.76-0.166,1.082-0.355c0.324-0.192,0.602-0.455,0.832-0.799
			c0.231-0.344,0.41-0.757,0.539-1.244c0.129-0.482,0.193-1.042,0.193-1.675c0-0.463-0.028-0.85-0.087-1.169
			c-0.058-0.318-0.129-0.589-0.217-0.808c-0.087-0.222-0.183-0.402-0.284-0.543C239.361,189.118,239.262,188.986,239.166,188.859z"
			/>
		<path fill="#5B5C5C" d="M236.613,176.027l-0.333,0.042c-0.505,0.061-0.882,0.362-1.131,0.896c-0.245,0.53-0.371,1.363-0.371,2.488
			c0,0.442,0.026,0.825,0.081,1.142c0.052,0.316,0.113,0.587,0.184,0.809c0.072,0.224,0.146,0.398,0.229,0.535
			c0.079,0.134,0.149,0.251,0.211,0.344c0.105,0.16,0.178,0.294,0.213,0.411c0.035,0.114,0.052,0.265,0.052,0.455
			c0,0.271-0.041,0.528-0.125,0.767c-0.084,0.241-0.191,0.368-0.323,0.388c-0.072,0.007-0.13,0-0.176-0.02
			c-0.043-0.02-0.092-0.052-0.146-0.098c-0.023-0.015-0.102-0.107-0.225-0.28c-0.125-0.173-0.258-0.442-0.396-0.808
			c-0.143-0.365-0.269-0.845-0.381-1.439c-0.11-0.591-0.164-1.321-0.164-2.188c0-0.974,0.063-1.802,0.191-2.493
			c0.127-0.688,0.298-1.251,0.512-1.685c0.211-0.438,0.457-0.764,0.736-0.988c0.281-0.222,0.568-0.351,0.871-0.392l4.382-0.546
			c0.295-0.039,0.443,0.314,0.443,1.047c0,0.497-0.06,0.807-0.175,0.933c-0.116,0.124-0.275,0.2-0.481,0.227l-0.4,0.049
			c0.124,0.155,0.255,0.346,0.388,0.567c0.133,0.224,0.255,0.504,0.365,0.84c0.113,0.336,0.203,0.745,0.274,1.225
			c0.071,0.477,0.108,1.032,0.108,1.665c0,0.77-0.049,1.437-0.148,1.994c-0.098,0.56-0.234,1.022-0.408,1.397
			c-0.172,0.367-0.376,0.649-0.613,0.84c-0.234,0.191-0.486,0.304-0.752,0.333c-0.349,0.044-0.668-0.029-0.967-0.217
			c-0.299-0.185-0.558-0.548-0.777-1.083c-0.225-0.535-0.397-1.275-0.521-2.216c-0.124-0.941-0.195-2.145-0.213-3.607
			L236.613,176.027z M237.518,177.322c0.009,1.094,0.05,1.973,0.125,2.637c0.075,0.667,0.179,1.179,0.312,1.536
			c0.135,0.36,0.287,0.595,0.463,0.701c0.173,0.107,0.365,0.146,0.578,0.122c0.303-0.036,0.563-0.246,0.78-0.633
			c0.218-0.385,0.326-1.04,0.326-1.962c0-0.804-0.095-1.522-0.284-2.157c-0.194-0.636-0.432-1.105-0.715-1.412
			c-0.24-0.261-0.564-0.365-0.975-0.314l-0.625,0.078L237.518,177.322z"/>
		<path fill="#5B5C5C" d="M233.027,164.617c0,0.732-0.051,1.355-0.154,1.872c-0.1,0.516-0.225,0.939-0.376,1.273
			c-0.151,0.338-0.317,0.582-0.503,0.742c-0.188,0.161-0.359,0.251-0.518,0.271c-0.307,0.039-0.462-0.297-0.462-1.013
			c0-0.393,0.087-0.643,0.265-0.748c0.131-0.104,0.254-0.211,0.363-0.328c0.111-0.117,0.209-0.261,0.299-0.436
			c0.09-0.171,0.156-0.383,0.204-0.626c0.049-0.246,0.074-0.553,0.074-0.928c0-0.357-0.026-0.655-0.081-0.886
			c-0.053-0.229-0.122-0.422-0.211-0.572c-0.089-0.151-0.188-0.263-0.299-0.344c-0.11-0.08-0.219-0.146-0.324-0.202
			c-0.203-0.092-0.303-0.343-0.303-0.752c0-0.679,0.154-1.039,0.465-1.081c0.165-0.02,0.339,0.032,0.521,0.163
			c0.181,0.129,0.349,0.339,0.504,0.636c0.154,0.295,0.282,0.687,0.382,1.176C232.976,163.324,233.027,163.918,233.027,164.617z
			 M233.888,160.518c0-0.344,0.037-0.616,0.113-0.823c0.075-0.204,0.211-0.318,0.405-0.346l6.042-0.799
			c0.18-0.021,0.307,0.049,0.38,0.22c0.078,0.17,0.117,0.442,0.117,0.817c0,0.395-0.044,0.672-0.13,0.84
			c-0.084,0.164-0.205,0.256-0.367,0.275l-4.702,0.618l4.798,5.733c0.266,0.324,0.401,0.76,0.401,1.305
			c0,0.429-0.048,0.719-0.143,0.864c-0.091,0.151-0.216,0.234-0.368,0.254l-6.055,0.769c-0.178,0.022-0.304-0.056-0.379-0.23
			c-0.076-0.181-0.113-0.438-0.113-0.779s0.037-0.608,0.113-0.809c0.075-0.197,0.201-0.307,0.379-0.328l4.814-0.616l-4.922-5.813
			c-0.15-0.171-0.252-0.339-0.306-0.512C233.916,160.984,233.888,160.772,233.888,160.518z"/>
		<path fill="#5B5C5C" d="M240.449,149.985c0.33-0.046,0.497,0.3,0.497,1.035c0,0.36-0.039,0.64-0.117,0.835
			c-0.073,0.199-0.2,0.312-0.38,0.336l-5.538,0.747v3.173c0,0.377-0.044,0.635-0.133,0.783s-0.21,0.234-0.358,0.253
			c-0.148,0.022-0.268-0.036-0.352-0.17c-0.085-0.134-0.127-0.37-0.127-0.713v-8.872c0-0.628,0.158-0.966,0.479-1.01
			c0.148-0.022,0.27,0.029,0.358,0.155c0.089,0.125,0.133,0.373,0.133,0.75v3.452L240.449,149.985z"/>
		<path fill="#5B5C5C" d="M237.411,145.097c-0.559,0.081-1.062-0.002-1.503-0.235c-0.444-0.241-0.823-0.614-1.136-1.123
			c-0.315-0.511-0.554-1.137-0.716-1.884c-0.166-0.742-0.246-1.585-0.246-2.522c0-0.933,0.08-1.799,0.246-2.59
			c0.162-0.789,0.4-1.482,0.716-2.084c0.313-0.602,0.691-1.079,1.136-1.444c0.441-0.359,0.944-0.584,1.503-0.664
			c0.56-0.08,1.065-0.003,1.519,0.229c0.455,0.234,0.84,0.604,1.154,1.115c0.314,0.509,0.559,1.137,0.732,1.882
			s0.262,1.587,0.262,2.529c0,0.94-0.088,1.807-0.262,2.603c-0.174,0.791-0.418,1.49-0.732,2.089
			c-0.314,0.602-0.699,1.081-1.154,1.443C238.476,144.8,237.97,145.02,237.411,145.097z M237.411,142.794
			c0.809-0.114,1.457-0.545,1.944-1.3c0.49-0.75,0.734-1.768,0.734-3.051c0-1.28-0.244-2.228-0.734-2.841
			c-0.487-0.616-1.136-0.866-1.944-0.747c-0.808,0.114-1.446,0.548-1.916,1.3c-0.468,0.747-0.704,1.76-0.704,3.038
			c0,1.28,0.236,2.23,0.704,2.844C235.964,142.653,236.603,142.906,237.411,142.794z"/>
		<path fill="#5B5C5C" d="M235.84,118.089l4.638,2.912c0.248,0.153,0.373,0.518,0.373,1.098c0,0.36-0.037,0.64-0.107,0.837
			c-0.07,0.2-0.166,0.351-0.281,0.453l-4.555,4.134l4.608-0.682c0.286-0.039,0.43,0.29,0.43,0.991c0,0.357-0.036,0.618-0.101,0.783
			c-0.068,0.163-0.181,0.259-0.343,0.28l-6.042,0.887c-0.213,0.028-0.361-0.068-0.445-0.293c-0.084-0.229-0.127-0.563-0.127-1.005
			c0-0.393,0.043-0.714,0.127-0.967c0.084-0.248,0.197-0.436,0.34-0.56l5.268-4.701l-5.216-3.131
			c-0.177-0.109-0.308-0.271-0.392-0.478c-0.084-0.209-0.127-0.535-0.127-0.979s0.039-0.776,0.121-1.003
			c0.078-0.224,0.221-0.351,0.423-0.385l6.084-0.93c0.145-0.02,0.249,0.041,0.321,0.183c0.07,0.144,0.108,0.395,0.108,0.755
			c0,0.375-0.038,0.645-0.108,0.811c-0.072,0.163-0.183,0.258-0.335,0.282L235.84,118.089z"/>
	</g>
</g>
<g>
	<g>
		<g>
			<g>
				<path fill="#EF4276" d="M485.582,379.335c0.652-0.214,1.539-3.094,1.729-4.586l0.236-1.877c0.197-1.493,1.348-2.907,2.582-3.15
					l5.088-1.476c1.182-0.45,2.742,0.18,3.486,1.397l0.908,1.531c0.746,1.21,1.822,2.539,2.4,2.955
					c0.59,0.404,2.867-0.866,3.857-1.755l5.914-5.225c0.994-0.876,2.078-2.169,2.404-2.872c0.33-0.697-0.713-3.484-1.439-4.691
					l-0.918-1.534c-0.73-1.215-0.744-3.201-0.02-4.406l2.678-5.371c0.564-1.321,2.014-2.19,3.217-1.947l1.514,0.307
					c1.217,0.239,2.725,0.275,3.363,0.071c0.643-0.205,1.49-3.039,1.672-4.512l1.115-8.76c0.191-1.468,0.197-3.315,0.023-4.097
					c-0.182-0.789-2.502-1.88-3.695-2.135l-1.535-0.317c-1.213-0.248-2.371-1.682-2.561-3.159l-1.227-6.138
					c-0.375-1.434,0.127-3.318,1.107-4.168l1.236-1.086c0.996-0.852,2.063-2.117,2.398-2.821c0.32-0.688-0.717-3.479-1.436-4.706
					l-4.316-7.311c-0.729-1.234-1.789-2.578-2.371-2.999c-0.57-0.414-2.834,0.783-3.832,1.641l-1.246,1.081
					c-1.004,0.852-2.633,0.82-3.637-0.078l-4.455-3.431c-1.115-0.718-1.865-2.524-1.662-4.005l0.225-1.871
					c0.146-1.179,0.186-2.598,0.105-3.525c-4.369,5.122-8.205,10.942-11.529,17.207c6.383,0.92,12.453,4.956,16.521,11.79
					c7.525,12.682,5.303,30.181-4.986,39.215c-7.291,6.394-16.682,6.749-24.316,2.023c0.016,8.131,1.615,16.274,4,23.999
					l3.963,0.752C483.385,379.53,484.939,379.542,485.582,379.335z"/>
			</g>
		</g>
	</g>
	<g>
		<g>
			<g>
				<path fill="#EF4276" d="M604.164,267.127c-2.518,0.17-5.23,0.739-6.416,1.434c-1.373,0.794-2.277,7.854-2.17,11.384l0.146,4.453
					c0.125,3.534-1.947,7.369-4.594,8.521l-10.85,5.938c-2.49,1.648-6.25,0.964-8.357-1.515l-2.652-3.116
					c-2.115-2.485-5.053-5.065-6.531-5.745c-1.486-0.652-6.246,3.442-8.207,6.019l-11.754,15.374
					c-1.973,2.595-4.016,6.217-4.523,8.067c-0.498,1.836,2.99,7.844,5.131,10.329l2.693,3.127c2.152,2.476,2.928,7.159,1.717,10.404
					l-4.236,14.152c-0.801,3.452-3.84,6.378-6.768,6.48l-3.695,0.165c-2.955,0.12-6.518,0.908-7.957,1.777
					c-1.436,0.864-2.398,8.134-2.27,11.744l0.713,21.548c0.121,3.627,0.807,8.015,1.52,9.765c0.717,1.761,6.635,2.899,9.564,2.722
					l3.699-0.212c2.924-0.158,6.152,2.457,7.168,5.812l5.166,13.682c1.42,3.126,0.951,7.849-1.018,10.524l-2.477,3.357
					c-1.98,2.673-4.006,6.388-4.514,8.243c-0.502,1.859,2.975,7.7,5.104,10.104l12.719,14.132c2.111,2.369,5.064,4.755,6.547,5.337
					c1.461,0.566,6.184-3.813,8.127-6.491l2.428-3.354c1.936-2.661,5.635-3.695,8.232-2.313l11.166,4.845
					c0.059,0.024,0.109,0.08,0.17,0.095c2.043-9.514,5.311-19.094,9.455-27.273c-8.963-2.179-17.611-7.253-24.92-15.566
					c-21.789-24.752-23.182-67.093-3.072-93.926c16.111-21.496,40.889-26.047,60.719-13.687
					C632.99,300.313,620.49,280.507,604.164,267.127z"/>
			</g>
		</g>
	</g>
	<g>
		<path fill="#EF4276" d="M602.717,586.443c0,4.739-3.063,8.801-6.846,9.059l-65.852,4.55c-3.977,0.275-7.191-3.454-7.191-8.323l0,0
			c0-4.886,3.215-9.027,7.191-9.28l65.852-4.166C599.654,578.044,602.717,581.688,602.717,586.443L602.717,586.443z"/>
	</g>
	<g>
		<path fill="#EF4276" d="M602.707,615.351c0,4.742-3.057,8.822-6.838,9.122l-65.854,5.192c-3.977,0.314-7.195-3.377-7.195-8.248
			l0,0c0-4.861,3.219-9.037,7.195-9.329l65.854-4.811C599.65,607.003,602.707,610.615,602.707,615.351L602.707,615.351z"/>
	</g>
	<g>
		<path fill="#EF4276" d="M582.248,636.423c5.68-0.403,7.314,3.935,3.631,9.634c0,0-6.348,9.823-22.574,11.267
			c-16.41,1.461-22.92-7.361-22.92-7.361c-3.807-5.151-2.117-9.843,3.729-10.391c0,0,2.781-0.266,19.191-1.619
			C579.531,636.613,582.248,636.423,582.248,636.423z"/>
	</g>
	<g>
		<path fill="#EF4276" d="M649.357,387.559c-9.076,27.481-25.875,49.046-26.105,49.341c-10.254,12.934-18.332,37.433-18.332,55.682
			v34.757c0,8.913-5.779,16.468-12.928,16.835l-57.939,2.992c-7.453,0.385-13.547-6.764-13.547-15.932v-35.751
			c0-18.772-8.6-43.638-19.635-56.67c-0.35-0.421-35.342-42.436-35.342-86.247c0-66.847,44.643-118.926,97.785-116.17
			c39.912,2.072,73.227,34.67,86.043,78.294v-45.276c-19.785-32.304-50.678-54.341-86.043-56.452
			c-63.963-3.819-118.072,58.628-118.072,139.352c0,54.377,40.063,101.845,41.74,103.812c7.455,8.726,13.957,27.413,13.957,40.028
			v35.981c0,22.412,14.945,39.766,33.113,38.685l57.939-3.444c17.281-1.03,31.182-19.367,31.182-40.881v-34.538
			c0-12.111,5.977-30.341,12.75-38.977c0.602-0.765,6.521-8.401,13.434-20.428V387.559z"/>
	</g>
</g>
<g>
	<g>
		<g>
			<g>
				<path fill="#5E5F5F" d="M230.318,599.509c0.06-0.024,0.139-0.428,0.156-0.64l0.02-0.269c0.018-0.211,0.123-0.406,0.232-0.428
					l0.459-0.173c0.107-0.054,0.248,0.048,0.316,0.229l0.081,0.229c0.068,0.181,0.167,0.38,0.217,0.448
					c0.055,0.061,0.263-0.104,0.352-0.224l0.54-0.706c0.091-0.119,0.19-0.297,0.22-0.397c0.03-0.097-0.064-0.511-0.132-0.691
					l-0.084-0.226c-0.066-0.181-0.068-0.471-0.002-0.639l0.246-0.759c0.049-0.188,0.184-0.302,0.295-0.261l0.139,0.059
					c0.111,0.039,0.25,0.059,0.311,0.029c0.059-0.022,0.137-0.427,0.152-0.643l0.104-1.267c0.019-0.212,0.019-0.479,0.002-0.594
					c-0.016-0.117-0.23-0.29-0.342-0.334l-0.141-0.054c-0.111-0.046-0.219-0.258-0.234-0.475l-0.115-0.893
					c-0.031-0.215,0.014-0.485,0.103-0.6l0.114-0.15c0.092-0.119,0.189-0.303,0.221-0.399c0.029-0.1-0.064-0.507-0.132-0.689
					l-0.396-1.081c-0.066-0.18-0.164-0.379-0.219-0.442c-0.052-0.063-0.258,0.102-0.349,0.222l-0.114,0.15
					c-0.092,0.117-0.238,0.109-0.331-0.029l-0.404-0.514c-0.1-0.104-0.169-0.37-0.151-0.579l0.02-0.268
					c0.014-0.168,0.02-0.375,0.012-0.509c-0.396,0.721-0.739,1.541-1.04,2.427c0.573,0.158,1.122,0.767,1.491,1.772
					c0.687,1.875,0.483,4.39-0.45,5.619c-0.659,0.866-1.503,0.847-2.181,0.111c0,1.164,0.143,2.34,0.355,3.46l0.354,0.141
					C230.123,599.519,230.261,599.538,230.318,599.509z"/>
			</g>
		</g>
	</g>
	<g>
		<g>
			<g>
				<path fill="#5E5F5F" d="M241.443,583.758c-0.249,0.017-0.514,0.095-0.63,0.194c-0.136,0.117-0.224,1.166-0.213,1.697
					l0.016,0.665c0.013,0.53-0.19,1.093-0.448,1.251l-1.051,0.838c-0.238,0.23-0.6,0.111-0.801-0.266l-0.254-0.47
					c-0.199-0.375-0.48-0.77-0.622-0.874c-0.14-0.103-0.591,0.479-0.778,0.85l-1.105,2.203c-0.184,0.367-0.373,0.886-0.422,1.154
					c-0.045,0.268,0.279,1.163,0.48,1.541l0.252,0.475c0.203,0.375,0.274,1.068,0.158,1.538l-0.394,2.04
					c-0.075,0.499-0.359,0.906-0.632,0.896l-0.345-0.005c-0.274-0.008-0.604,0.08-0.737,0.192c-0.131,0.116-0.221,1.166-0.209,1.689
					l0.064,3.138c0.014,0.526,0.074,1.176,0.143,1.434c0.064,0.264,0.613,0.492,0.885,0.497l0.346,0.007
					c0.273,0.008,0.574,0.429,0.67,0.931l0.486,2.064c0.133,0.475,0.088,1.161-0.097,1.533l-0.232,0.461
					c-0.187,0.367-0.375,0.886-0.425,1.148c-0.047,0.266,0.279,1.166,0.477,1.549l1.205,2.256c0.199,0.383,0.481,0.777,0.621,0.885
					c0.141,0.106,0.592-0.468,0.778-0.841l0.233-0.462c0.186-0.365,0.542-0.47,0.793-0.227l1.086,0.886
					c0.003,0.008,0.012,0.018,0.017,0.02c0.2-1.395,0.519-2.782,0.925-3.951c-0.879-0.442-1.719-1.314-2.426-2.644
					c-2.084-3.91-2.217-10.159-0.296-13.977c1.56-3.097,3.995-3.64,5.98-1.653C244.302,588.873,243.052,585.825,241.443,583.758z"/>
			</g>
		</g>
	</g>
	<g>
		<path fill="#5E5F5F" d="M241.298,631.584c0,0.708-0.299,1.251-0.668,1.207l-6.26-0.742c-0.368-0.044-0.666-0.655-0.666-1.361l0,0
			c0-0.708,0.298-1.249,0.666-1.205l6.26,0.735C241,630.262,241.298,630.873,241.298,631.584L241.298,631.584z"/>
	</g>
	<g>
		<path fill="#5E5F5F" d="M241.298,635.912c0,0.714-0.299,1.249-0.668,1.202l-6.262-0.757c-0.367-0.044-0.664-0.649-0.664-1.358l0,0
			c0-0.706,0.297-1.241,0.664-1.197l6.262,0.75C241,634.595,241.298,635.204,241.298,635.912L241.298,635.912z"/>
	</g>
	<g>
		<path fill="#5E5F5F" d="M239.307,638.575c0.55,0.076,0.71,0.763,0.351,1.52c0,0-0.611,1.303-2.163,1.112
			c-1.551-0.192-2.161-1.641-2.161-1.641c-0.355-0.845-0.197-1.49,0.349-1.434c0,0,0.262,0.026,1.813,0.216
			C239.046,638.536,239.307,638.575,239.307,638.575z"/>
	</g>
	<g>
		<path fill="#5E5F5F" d="M240.253,628.509l-5.51-0.643c-1.678-0.195-3.041-2.979-3.041-6.211v-5.18c0-1.819-0.589-4.6-1.257-5.945
			c-0.152-0.307-3.689-7.498-3.689-15.172c0-11.392,4.804-20.235,10.738-19.707c5.971,0.533,10.858,10.346,10.858,21.863
			c0,7.764-3.604,14.265-3.758,14.539c-0.678,1.21-1.275,3.879-1.275,5.707v5.212C243.32,626.226,241.943,628.706,240.253,628.509z
			 M237.495,579.108c-4.952-0.451-8.96,6.923-8.96,16.425c0,6.228,3.129,12.616,3.162,12.679c1.004,2.017,1.792,5.733,1.792,8.46
			v5.186c0,1.332,0.563,2.481,1.255,2.562l5.51,0.633c0.695,0.078,1.262-0.944,1.262-2.283v-5.208c0-2.736,0.794-6.3,1.812-8.111
			c0.032-0.056,3.212-5.828,3.212-12.114C246.539,587.741,242.47,579.561,237.495,579.108z"/>
	</g>
</g>
<g>
	<g>
		<path fill="#333333" d="M301.875,161.976c-0.672-0.675-1.141-1.317-1.416-1.928c-0.273-0.609-0.41-1.193-0.41-1.748
			c0-1.181,0.365-2.247,1.096-3.197c0.73-0.949,1.611-1.387,2.645-1.307c0.609,0.049,1.172,0.231,1.688,0.545
			c0.514,0.319,1.107,0.781,1.773,1.386c1.031,0.907,2.516,1.957,4.453,3.14c1.934,1.187,4.35,1.885,7.242,2.104
			c3.188,0.239,5.635-0.302,7.346-1.618c1.707-1.317,2.561-3.214,2.561-5.689c0-0.894-0.092-1.763-0.271-2.603
			c-0.178-0.84-0.582-1.66-1.211-2.469c-0.631-0.806-1.545-1.551-2.744-2.232c-1.201-0.685-2.824-1.275-4.869-1.787l-5.514-1.48
			c-3.932-1.005-7.16-2.862-9.676-5.563c-2.523-2.705-3.787-6.313-3.787-10.826c0-4.928,1.596-8.606,4.787-11.028
			c3.184-2.417,7.496-3.379,12.928-2.89c2.406,0.217,4.496,0.594,6.268,1.132c1.766,0.538,3.25,1.135,4.447,1.794
			c1.195,0.657,2.182,1.313,2.959,1.965s1.373,1.203,1.791,1.655c1.131,1.198,1.699,2.348,1.699,3.445
			c0,1.101-0.283,2.052-0.85,2.863c-0.568,0.808-1.387,1.168-2.461,1.075c-0.658-0.056-1.27-0.265-1.838-0.623
			c-0.57-0.357-1.242-0.847-2.018-1.463c-1.141-0.857-2.502-1.768-4.09-2.734c-1.592-0.966-3.684-1.563-6.27-1.789
			c-3.258-0.285-5.658,0.195-7.201,1.443c-1.545,1.249-2.318,2.948-2.318,5.096c0,0.9,0.094,1.772,0.275,2.619
			c0.18,0.848,0.559,1.658,1.137,2.433c0.572,0.774,1.42,1.487,2.539,2.13c1.119,0.65,2.613,1.188,4.482,1.619l5.596,1.5
			c4.621,1.139,8.076,3.058,10.377,5.752c2.297,2.695,3.445,6.306,3.445,10.834c0,5.015-1.52,8.83-4.564,11.454
			c-3.049,2.627-7.426,3.737-13.135,3.323c-2.293-0.168-4.357-0.491-6.201-0.972c-1.844-0.481-3.48-1.034-4.904-1.657
			c-1.426-0.623-2.609-1.264-3.553-1.924C303.166,163.096,302.419,162.501,301.875,161.976z"/>
		<path fill="#333333" d="M351.404,138.193l21.104-18.206c0.406-0.302,0.801-0.571,1.18-0.808c0.377-0.236,0.799-0.336,1.264-0.297
			c0.988,0.09,1.816,0.555,2.484,1.393c0.666,0.842,1.002,1.735,1.002,2.683c0,0.338-0.074,0.755-0.217,1.251
			c-0.146,0.497-0.539,1.021-1.176,1.573l-12.33,10.862l15.637,28.734c0.289,0.565,0.492,1.105,0.607,1.619
			c0.115,0.519,0.172,0.879,0.172,1.081c-0.057,1.146-0.549,2.025-1.477,2.634c-0.926,0.608-1.887,0.877-2.871,0.804
			c-0.521-0.037-0.988-0.19-1.396-0.458c-0.406-0.268-0.871-0.894-1.395-1.882l-15.083-27.906l-7.506,6.763v17.526
			c0,1.572-0.342,2.624-1.02,3.154c-0.678,0.531-1.609,0.753-2.791,0.668c-1.186-0.088-2.102-0.448-2.754-1.076
			c-0.654-0.629-0.979-1.731-0.979-3.307v-64.521c0-1.575,0.324-2.622,0.979-3.141c0.652-0.519,1.568-0.723,2.754-0.611
			c1.182,0.115,2.113,0.497,2.791,1.143c0.678,0.645,1.02,1.753,1.02,3.323V138.193z"/>
		<path fill="#333333" d="M421.277,147.704c0,2.408-1.156,3.516-3.475,3.328l-29.131-2.349c0,5.47,1.168,9.781,3.5,12.93
			c2.328,3.145,5.611,4.876,9.846,5.194c1.658,0.125,3.1-0.02,4.326-0.428c1.225-0.414,2.264-0.938,3.119-1.578
			c0.852-0.64,1.549-1.307,2.088-2.003c0.541-0.696,0.98-1.298,1.32-1.81c0.396-0.638,0.781-1.109,1.148-1.416
			c0.369-0.308,0.922-0.432,1.66-0.373c0.793,0.061,1.572,0.421,2.334,1.083c0.764,0.663,1.146,1.493,1.146,2.498
			c0,0.869-0.311,1.882-0.934,3.038c-0.51,0.901-1.176,1.867-1.994,2.914c-0.824,1.042-1.873,2.019-3.148,2.929
			c-1.275,0.911-2.826,1.634-4.646,2.172c-1.824,0.536-3.963,0.718-6.42,0.54c-3.203-0.235-6.111-1.103-8.725-2.609
			c-2.619-1.507-4.85-3.532-6.697-6.069c-1.85-2.536-3.264-5.519-4.246-8.946c-0.984-3.426-1.477-7.136-1.477-11.133
			c0-4.062,0.492-7.711,1.477-10.943c0.982-3.23,2.385-5.967,4.203-8.209c1.816-2.237,4.008-3.9,6.568-4.988
			c2.555-1.084,5.408-1.485,8.555-1.2c3.199,0.287,6.021,1.195,8.469,2.722c2.441,1.526,4.484,3.516,6.129,5.972
			c1.641,2.454,2.887,5.285,3.734,8.501S421.277,144.097,421.277,147.704z M401.676,127.64c-2.002-0.178-3.75,0.059-5.238,0.701
			c-1.494,0.645-2.758,1.58-3.791,2.807c-1.037,1.225-1.855,2.71-2.463,4.443c-0.602,1.738-0.992,3.581-1.166,5.523l24.959,2.074
			c-0.168-1.889-0.523-3.747-1.064-5.567c-0.539-1.821-1.307-3.431-2.299-4.823c-0.998-1.395-2.232-2.559-3.715-3.491
			C405.418,128.37,403.676,127.814,401.676,127.64z"/>
		<path fill="#333333" d="M464.379,151.232c0,2.373-1.127,3.469-3.381,3.286l-28.326-2.286c0,5.396,1.133,9.646,3.4,12.747
			c2.264,3.102,5.455,4.804,9.578,5.112c1.609,0.122,3.012-0.021,4.203-0.428c1.191-0.407,2.203-0.926,3.035-1.559
			c0.828-0.63,1.504-1.29,2.029-1.979c0.525-0.684,0.955-1.277,1.283-1.781c0.387-0.631,0.758-1.099,1.119-1.402
			c0.359-0.3,0.895-0.424,1.611-0.368c0.77,0.059,1.531,0.417,2.275,1.066c0.74,0.652,1.111,1.473,1.111,2.462
			c0,0.859-0.303,1.857-0.908,2.999c-0.494,0.886-1.141,1.843-1.941,2.872c-0.799,1.03-1.816,1.994-3.059,2.893
			c-1.242,0.9-2.75,1.616-4.521,2.147c-1.771,0.533-3.852,0.713-6.238,0.54c-3.117-0.229-5.947-1.083-8.488-2.563
			c-2.545-1.485-4.715-3.479-6.51-5.977c-1.799-2.503-3.174-5.441-4.131-8.817c-0.959-3.379-1.438-7.038-1.438-10.978
			c0-4.005,0.479-7.605,1.438-10.795c0.957-3.184,2.318-5.886,4.09-8.1c1.766-2.205,3.895-3.849,6.383-4.925
			c2.484-1.073,5.262-1.473,8.32-1.197c3.111,0.282,5.855,1.173,8.236,2.678c2.377,1.502,4.359,3.459,5.963,5.879
			c1.592,2.418,2.805,5.21,3.629,8.38C463.967,144.311,464.379,147.673,464.379,151.232z M445.314,131.467
			c-1.947-0.173-3.645,0.063-5.096,0.698c-1.451,0.638-2.68,1.561-3.686,2.771s-1.803,2.673-2.391,4.387
			c-0.59,1.714-0.967,3.53-1.135,5.446l24.27,2.016c-0.164-1.862-0.51-3.693-1.033-5.487c-0.527-1.794-1.27-3.379-2.236-4.752
			c-0.969-1.373-2.174-2.522-3.613-3.442C448.951,132.183,447.26,131.637,445.314,131.467z"/>
		<path fill="#333333" d="M477.258,148.642l19.482-17.558c0.375-0.292,0.738-0.553,1.088-0.784c0.35-0.226,0.738-0.323,1.168-0.287
			c0.912,0.083,1.676,0.526,2.295,1.332c0.615,0.804,0.924,1.663,0.924,2.57c0,0.329-0.068,0.729-0.199,1.205
			c-0.137,0.476-0.496,0.981-1.086,1.515l-11.385,10.479l14.439,27.565c0.266,0.541,0.453,1.059,0.559,1.556
			c0.107,0.494,0.16,0.84,0.16,1.035c-0.053,1.103-0.508,1.947-1.363,2.534c-0.857,0.589-1.742,0.85-2.652,0.781
			c-0.482-0.034-0.912-0.18-1.289-0.434c-0.377-0.258-0.805-0.856-1.287-1.807l-13.926-26.77l-6.928,6.52v16.837
			c0,1.513-0.314,2.525-0.939,3.034c-0.627,0.511-1.486,0.728-2.576,0.647c-1.094-0.081-1.939-0.422-2.541-1.022
			c-0.604-0.602-0.904-1.663-0.904-3.178v-61.975c0-1.512,0.301-2.52,0.904-3.023c0.602-0.499,1.447-0.696,2.541-0.595
			c1.09,0.105,1.949,0.468,2.576,1.086c0.625,0.616,0.939,1.68,0.939,3.189V148.642z"/>
		<path fill="#333333" d="M508.471,177.354c-0.588-0.626-1-1.228-1.242-1.797c-0.238-0.569-0.357-1.115-0.357-1.636
			c0-1.105,0.32-2.106,0.961-2.999c0.639-0.892,1.412-1.306,2.318-1.234c0.533,0.039,1.027,0.209,1.479,0.501
			c0.453,0.297,0.973,0.726,1.557,1.29c0.904,0.845,2.207,1.821,3.906,2.922c1.697,1.101,3.816,1.745,6.354,1.936
			c2.797,0.212,4.945-0.307,6.447-1.549c1.498-1.241,2.246-3.019,2.246-5.341c0-0.838-0.078-1.65-0.236-2.438
			c-0.158-0.786-0.512-1.553-1.064-2.31c-0.553-0.753-1.355-1.444-2.406-2.077c-1.057-0.633-2.48-1.181-4.273-1.65l-4.84-1.361
			c-3.449-0.922-6.281-2.646-8.488-5.161c-2.213-2.521-3.32-5.894-3.32-10.12c0-4.615,1.402-8.067,4.201-10.352
			c2.793-2.281,6.574-3.206,11.338-2.777c2.113,0.192,3.945,0.535,5.5,1.029c1.553,0.494,2.854,1.047,3.906,1.656
			c1.049,0.61,1.914,1.22,2.596,1.828c0.682,0.606,1.207,1.12,1.574,1.538c0.992,1.118,1.49,2.191,1.49,3.221
			c0,1.03-0.248,1.926-0.744,2.686c-0.5,0.762-1.219,1.103-2.164,1.021c-0.576-0.049-1.113-0.241-1.611-0.572
			c-0.498-0.334-1.092-0.789-1.771-1.363c-1-0.796-2.197-1.641-3.59-2.539c-1.398-0.896-3.23-1.444-5.502-1.644
			c-2.857-0.251-4.965,0.214-6.316,1.39c-1.355,1.181-2.033,2.775-2.033,4.784c0,0.845,0.08,1.66,0.238,2.451
			c0.16,0.794,0.492,1.551,0.998,2.271c0.504,0.724,1.246,1.388,2.229,1.987c0.98,0.601,2.291,1.098,3.932,1.492l4.912,1.375
			c4.055,1.047,7.088,2.824,9.107,5.342c2.016,2.515,3.023,5.892,3.023,10.135c0,4.696-1.334,8.282-4.006,10.753
			c-2.678,2.476-6.52,3.535-11.529,3.17c-2.01-0.148-3.822-0.443-5.439-0.884c-1.617-0.443-3.055-0.952-4.301-1.531
			c-1.252-0.577-2.289-1.174-3.117-1.787C509.605,178.398,508.951,177.846,508.471,177.354z"/>
		<path fill="#EF4276" d="M319.708,219.829c0.477-0.745,0.869-1.244,1.168-1.5c0.301-0.253,0.709-0.367,1.229-0.338
			c0.557,0.034,1.105,0.295,1.646,0.783c0.537,0.49,0.805,1.076,0.805,1.763c0,0.641-0.139,1.252-0.416,1.831
			c-0.203,0.492-0.568,1.146-1.109,1.967c-0.537,0.818-1.275,1.612-2.215,2.384c-0.939,0.774-2.08,1.424-3.42,1.947
			c-1.344,0.523-2.938,0.735-4.783,0.636c-2.291-0.124-4.326-0.693-6.098-1.712c-1.775-1.015-3.268-2.376-4.48-4.08
			c-1.215-1.701-2.145-3.717-2.793-6.035c-0.648-2.324-0.971-4.845-0.971-7.568c0-2.725,0.322-5.195,0.971-7.418
			c0.648-2.221,1.578-4.112,2.793-5.67c1.213-1.559,2.705-2.731,4.48-3.513c1.771-0.784,3.807-1.099,6.098-0.95
			c1.725,0.114,3.24,0.453,4.543,1.021c1.299,0.567,2.42,1.249,3.359,2.042c0.939,0.794,1.697,1.644,2.277,2.55
			c0.578,0.907,1.027,1.737,1.348,2.49c0.158,0.377,0.277,0.728,0.359,1.054c0.08,0.326,0.119,0.67,0.119,1.037
			c0,0.823-0.258,1.461-0.779,1.909c-0.518,0.447-1.076,0.654-1.676,0.618c-0.439-0.029-0.809-0.153-1.107-0.375
			s-0.67-0.711-1.109-1.466c-0.238-0.377-0.539-0.871-0.902-1.484c-0.359-0.611-0.818-1.208-1.381-1.79
			c-0.561-0.579-1.25-1.091-2.072-1.526c-0.82-0.438-1.814-0.696-2.979-0.77c-3.016-0.194-5.25,0.833-6.703,3.075
			c-1.451,2.247-2.178,5.39-2.178,9.421c0,4.127,0.727,7.424,2.178,9.89c1.453,2.464,3.688,3.775,6.703,3.943
			c1.084,0.062,2.006-0.036,2.77-0.287c0.76-0.253,1.412-0.592,1.951-1.018c0.543-0.421,0.994-0.886,1.352-1.385
			C319.044,220.803,319.384,220.309,319.708,219.829z"/>
		<path fill="#EF4276" d="M361.803,195.567c3.072,0.201,5.502,1.321,7.287,3.356c1.783,2.033,2.674,5.035,2.674,9.003v21.519
			c0,1.58-0.793,2.325-2.383,2.239c-1.709-0.092-2.561-0.927-2.561-2.512v-19.722c0-1.264-0.088-2.423-0.262-3.472
			c-0.176-1.05-0.496-1.94-0.963-2.671s-1.098-1.313-1.895-1.748c-0.799-0.434-1.822-0.691-3.068-0.771
			c-1.52-0.095-2.79,0.231-3.805,0.98c-1.018,0.753-1.816,1.746-2.404,2.98c-0.586,1.234-1.01,2.637-1.264,4.209
			c-0.256,1.573-0.381,3.131-0.381,4.672v14.772c0,1.59-0.805,2.337-2.412,2.252c-1.727-0.095-2.592-0.935-2.592-2.527V208.29
			c0-1.273-0.09-2.438-0.264-3.494c-0.178-1.057-0.504-1.952-0.975-2.688c-0.473-0.732-1.111-1.319-1.92-1.76
			c-0.807-0.437-1.842-0.694-3.105-0.777c-1.537-0.097-2.82,0.222-3.85,0.952c-1.029,0.735-1.84,1.722-2.432,2.96
			c-0.596,1.242-1.023,2.654-1.279,4.236c-0.258,1.582-0.387,3.15-0.387,4.701v14.588c0,1.049-0.23,1.758-0.684,2.117
			c-0.457,0.363-1.082,0.523-1.877,0.48c-0.795-0.042-1.41-0.271-1.848-0.682c-0.438-0.409-0.654-1.143-0.654-2.196v-30.042
			c0-1.008,0.197-1.68,0.596-2.018c0.396-0.342,0.992-0.487,1.789-0.437c0.793,0.054,1.396,0.278,1.816,0.67
			c0.416,0.392,0.623,1.091,0.623,2.094v3.221c0.039-0.181,0.199-0.582,0.475-1.205c0.32-0.708,0.834-1.429,1.547-2.159
			c0.713-0.729,1.674-1.363,2.877-1.901c1.207-0.533,2.719-0.745,4.531-0.628c2.404,0.158,4.359,0.845,5.875,2.057
			c1.51,1.21,2.598,2.787,3.266,4.737c0.822-1.806,2.096-3.223,3.816-4.245S359.462,195.416,361.803,195.567z"/>
		<path fill="#EF4276" d="M377.441,229.486c-0.422-0.428-0.723-0.84-0.895-1.229c-0.174-0.394-0.262-0.771-0.262-1.132
			c0-0.765,0.232-1.463,0.697-2.089c0.459-0.625,1.021-0.92,1.678-0.886c0.381,0.021,0.74,0.134,1.068,0.331
			c0.326,0.199,0.701,0.492,1.127,0.874c0.652,0.577,1.594,1.236,2.826,1.979c1.229,0.742,2.764,1.163,4.604,1.266
			c2.029,0.112,3.586-0.271,4.678-1.151c1.088-0.882,1.631-2.126,1.631-3.739c0-0.582-0.057-1.145-0.172-1.689
			c-0.113-0.543-0.371-1.074-0.771-1.59c-0.4-0.517-0.984-0.986-1.748-1.412c-0.768-0.426-1.799-0.789-3.098-1.091l-3.51-0.879
			c-2.5-0.597-4.547-1.755-6.145-3.469c-1.602-1.717-2.4-4.039-2.4-6.968c0-3.196,1.012-5.611,3.035-7.238
			c2.021-1.621,4.762-2.319,8.211-2.096c1.535,0.1,2.863,0.314,3.99,0.633c1.129,0.319,2.074,0.682,2.838,1.091
			c0.762,0.409,1.391,0.818,1.887,1.229c0.494,0.411,0.875,0.762,1.143,1.049c0.721,0.763,1.084,1.5,1.084,2.216
			s-0.18,1.341-0.541,1.877c-0.361,0.538-0.885,0.784-1.57,0.742c-0.42-0.026-0.811-0.153-1.174-0.377s-0.793-0.53-1.287-0.92
			c-0.727-0.541-1.594-1.11-2.607-1.712c-1.012-0.602-2.346-0.957-3.99-1.062c-2.07-0.132-3.596,0.222-4.574,1.057
			c-0.984,0.838-1.473,1.952-1.473,3.348c0,0.587,0.057,1.151,0.174,1.696c0.113,0.546,0.355,1.066,0.721,1.563
			c0.365,0.494,0.9,0.942,1.611,1.344c0.711,0.404,1.66,0.73,2.854,0.981l3.561,0.891c2.941,0.67,5.145,1.867,6.613,3.586
			c1.465,1.722,2.199,4.056,2.199,7.007c0,3.267-0.973,5.772-2.914,7.522c-1.945,1.75-4.732,2.529-8.367,2.335
			c-1.459-0.078-2.771-0.261-3.945-0.551c-1.17-0.287-2.209-0.626-3.113-1.01c-0.902-0.388-1.654-0.786-2.25-1.203
			C378.264,230.197,377.791,229.823,377.441,229.486z"/>
	</g>
</g>
<linearGradient id="SVGID_1_" gradientUnits="userSpaceOnUse" x1="270.3628" y1="391.0317" x2="583.5879" y2="391.0317">
	<stop  offset="0" style="stop-color:#A7A9AC;stop-opacity:0.25"/>
	<stop  offset="1" style="stop-color:#F1F2F2;stop-opacity:0"/>
</linearGradient>
<polygon fill="url(#SVGID_1_)" points="583.588,696.399 270.363,727.345 270.363,54.719 583.588,88.055 "/>
</svg>
